<?xml version="1.0" standalone="no"?>
<!DOCTYPE svg PUBLIC "-//W3C//DTD SVG 1.1//EN" "http://www.w3.org/Graphics/SVG/1.1/DTD/svg11.dtd" >
<svg xmlns="http://www.w3.org/2000/svg" xmlns:xlink="http://www.w3.org/1999/xlink" version="1.1">
<metadata></metadata>
<defs>
<font id="quartzregular" horiz-adv-x="1010" >
<font-face units-per-em="2048" ascent="1592" descent="-456" />
<missing-glyph horiz-adv-x="500" />
<glyph horiz-adv-x="0" />
<glyph horiz-adv-x="682" />
<glyph unicode=" " />
<glyph unicode="!" d="M454 23v235l157 55v-334zM454 600v664l157 155v-955z" />
<glyph unicode="&#x22;" d="M163 869l190 444l179 52l-260 -633zM478 869l189 444l180 52l-260 -633z" />
<glyph unicode="#" d="M1 403l88 78h120l68 -78l-88 -79h-119zM70 963l88 79h119l69 -79l-88 -78h-119zM194 143l19 153l88 79l69 -79l-38 -310zM239 508l43 349l88 79l69 -79l-43 -349l-88 -79zM308 1069l38 310l138 -157l-19 -153l-88 -79zM332 403l88 78h120l69 -78l-89 -79h-119zM401 963 l88 79h120l69 -79l-89 -78h-119zM526 143l18 153l88 79l69 -79l-38 -310zM570 508l43 349l88 79l69 -79l-43 -349l-88 -79zM639 1069l38 310l138 -157l-19 -153l-88 -79zM663 403l88 78h120l69 -78l-89 -79h-119zM732 963l88 79h120l69 -79l-89 -78h-119z" />
<glyph unicode="$" d="M123 710v471l79 79l78 -79v-393l-145 -85zM150 0l157 157h396l79 -78l-79 -79h-553zM171 683l136 78h396l137 -78l-137 -79h-396zM229 1287l78 78h553l-157 -157h-396zM440 -41h157v-112l-78 -79l-79 79v112zM440 1406v109l79 79l78 -79v-109h-157zM731 184v393l145 85 l12 -7v-471l-79 -78z" />
<glyph unicode="%" d="M18 883v455l106 -117v-221zM45 862l117 106h122l116 -106h-355zM45 1360h355l-116 -106h-122zM73 -5v132l345 528h141l-380 -597zM316 1000v221l106 119v-457zM547 859l285 448l106 63v-132l-345 -528zM554 27v455l106 -117v-221zM576 5l117 106h121l117 -106h-355z M576 504h355l-117 -106h-121zM852 144v221l106 120v-458z" />
<glyph unicode="&#x26;" d="M65 184v485l157 -91v-394l-78 -78zM65 696v456l93 93l64 -64v-394zM171 79l78 78h396l68 -68l-88 -89h-376zM185 1272l93 93h367l-157 -157h-239zM447 684l120 79h78l79 -79l-79 -78h-78zM673 184v394l78 79l79 -79v-373l-89 -89zM673 790v159l78 78l79 -78v-159l-79 -79 zM778 684l79 79h119l79 -79l-79 -78h-119z" />
<glyph unicode="'" d="M320 869l190 444l179 52l-260 -633z" />
<glyph unicode="(" d="M331 184v485l157 -91v-394l-78 -78zM331 696v485l79 79l78 -79v-394zM437 79l78 78h116l157 -157h-273zM437 1287l78 78h273l-157 -157h-116z" />
<glyph unicode=")" d="M222 0l157 157h116l79 -78l-79 -79h-273zM222 1365h273l79 -78l-79 -79h-116zM522 184v394l157 91v-485l-79 -78zM522 787v394l78 79l79 -79v-485z" />
<glyph unicode="*" d="M150 1106l71 36l209 -68l56 -78l-91 -29l-209 67zM268 757l129 178l91 29v-96l-129 -177l-79 -12zM448 1103v219l56 57l57 -57v-219l-57 -78zM521 868v96l91 -29l129 -178l-13 -79l-79 13zM524 996l56 78l208 68l72 -37l-37 -71l-208 -67z" />
<glyph unicode="+" d="M74 683l79 78h257l78 -78l-78 -79h-257zM437 251v326l79 78l78 -78v-326l-78 -78zM437 788v326l79 79l78 -79v-326l-78 -78zM543 683l78 78h258l78 -78l-78 -79h-258z" />
<glyph unicode="," d="M338 -94l154 384h180l-208 -513z" />
<glyph unicode="-" d="M192 686l145 75h332l150 -75l-150 -82h-332z" />
<glyph unicode="." d="M427 35v236l157 56v-327z" />
<glyph unicode="/" d="M-51 -121l416 662h166l-479 -754l-103 -38v130zM466 699l467 731l118 55l9 -110l-520 -821z" />
<glyph unicode="0" d="M123 27v642l157 -92v-393zM123 696v642l157 -157v-393zM150 0l157 157h396l157 -157h-710zM150 1365h710l-157 -157h-396zM731 184v393l157 92v-642zM731 788v393l157 157v-642z" />
<glyph unicode="1" d="M229 1365h416l-157 -157h-102zM516 143v435l157 91v-683zM516 787v394l157 157v-642z" />
<glyph unicode="2" d="M123 27v628l12 7l145 -85v-393zM150 0l157 157h396l157 -157h-710zM150 1365h710l-157 -157h-396zM171 683l136 78h396l137 -78l-137 -79h-396zM731 788v393l157 157v-628l-12 -7z" />
<glyph unicode="3" d="M109 0l157 157h396l157 -157h-710zM109 1365h710l-157 -157h-396zM129 683l137 78h396l136 -78l-136 -79h-396zM689 184v393l157 92v-642zM689 788v393l157 157v-642z" />
<glyph unicode="4" d="M96 710v669l157 -157v-434l-145 -85zM144 683l136 78h396l137 -78l-137 -79h-396zM704 143v434l157 92v-683zM704 788v434l157 157v-683z" />
<glyph unicode="5" d="M123 710v628l157 -157v-393l-145 -85zM150 0l157 157h396l157 -157h-710zM150 1365h710l-157 -157h-396zM171 683l136 78h396l137 -78l-137 -79h-396zM731 184v393l145 85l12 -7v-628z" />
<glyph unicode="6" d="M150 27v642l157 -92v-393zM150 696v642l157 -157v-393zM177 0l157 157h396l157 -157h-710zM177 1365h710l-157 -157h-396zM198 683l136 78h396l137 -78l-137 -79h-396zM758 184v393l145 85l12 -7v-628z" />
<glyph unicode="7" d="M82 1365h710l-157 -157h-396zM662 143v435l157 91v-683zM662 787v394l157 157v-642z" />
<glyph unicode="8" d="M123 27v642l157 -92v-393zM123 696v642l157 -157v-393zM150 0l157 157h396l157 -157h-710zM150 1365h710l-157 -157h-396zM171 683l136 78h396l137 -78l-137 -79h-396zM731 184v393l157 92v-642zM731 788v393l157 157v-642z" />
<glyph unicode="9" d="M96 710v628l157 -157v-393l-145 -85zM123 0l157 157h396l157 -157h-710zM123 1365h710l-157 -157h-396zM144 683l136 78h396l137 -78l-137 -79h-396zM704 184v393l157 92v-642zM704 788v393l157 157v-642z" />
<glyph unicode=":" d="M427 35v236l157 56v-327zM427 532v235l157 57v-328z" />
<glyph unicode=";" d="M330 -118l119 387l177 44l-168 -547zM470 532v235l157 57v-328z" />
<glyph unicode="&#x3c;" d="M61 629v120l887 411v-137l-740 -334l740 -336v-136z" />
<glyph unicode="=" d="M82 539l79 79h689l79 -79l-79 -78h-689zM82 833l79 78h689l79 -78l-79 -79h-689z" />
<glyph unicode="&#x3e;" d="M62 217v137l740 335l-740 335v136l887 -412v-120z" />
<glyph unicode="?" d="M109 1365h710l-157 -157h-396zM388 546v171l157 -157v-171zM388 761h274l131 -78l-151 -79h-97zM389 79v189l157 78v-346zM689 788v393l157 157v-641z" />
<glyph unicode="@" d="M45 333v357l126 -73v-284l-63 -62zM45 712v505l63 62l63 -62v-432zM130 249l62 63h631l126 -126h-757zM130 1301l62 63h631l63 -63l-63 -63h-631zM288 793v200l53 57l53 -57v-200l-53 -56zM364 714l57 53h226l113 -106h-339zM364 1073l57 53h339l-113 -106h-226zM674 793 v200l106 113v-426zM845 710v507l63 62l63 -62v-436z" />
<glyph unicode="A" d="M123 -14v683l157 -92v-434zM123 696v642l157 -157v-393zM150 1365h710l-157 -157h-396zM171 683l136 78h396l137 -78l-137 -79h-396zM731 143v434l157 92v-683zM731 788v393l157 157v-642z" />
<glyph unicode="B" d="M123 27v642l157 -92v-393zM123 696v642l157 -157v-393zM150 0l157 157h396l79 -78l-79 -79h-553zM150 1365h553l79 -78l-79 -79h-396zM171 683l136 78h396l79 -78l-79 -79h-396zM731 184v393l78 78l79 -78v-393l-79 -78zM731 788v393l78 79l79 -79v-392l-79 -79z" />
<glyph unicode="C" d="M171 184v485l157 -92v-393l-78 -78zM171 696v485l79 79l78 -79v-393zM277 79l78 78h396l157 -157h-553zM277 1287l78 78h553l-157 -157h-396z" />
<glyph unicode="D" d="M123 27v642l157 -92v-393zM123 696v642l157 -157v-393zM150 0l157 157h396l79 -78l-79 -79h-553zM150 1365h553l79 -78l-79 -79h-396zM731 184v393l157 92v-485l-79 -78zM731 788v393l78 79l79 -79v-485z" />
<glyph unicode="E" d="M164 27v642l157 -92v-393zM164 696v642l157 -157v-393zM191 0l157 157h396l157 -157h-710zM191 1365h710l-157 -157h-396zM212 683l136 78h396l137 -78l-137 -79h-396z" />
<glyph unicode="F" d="M164 -14v683l157 -92v-434zM164 696v642l157 -157v-393zM191 1365h710l-157 -157h-396zM212 683l136 78h396l137 -78l-137 -79h-396z" />
<glyph unicode="G" d="M123 184v485l157 -92v-393l-78 -78zM123 696v485l79 79l78 -79v-393zM229 79l78 78h396l79 -78l-79 -79h-396zM229 1287l78 78h396l-157 -157h-239zM498 683l137 78h68l137 -78l-137 -79h-68zM731 184v393l145 85l12 -7v-471l-79 -78z" />
<glyph unicode="H" d="M123 -14v683l157 -92v-434zM123 696v683l157 -157v-434zM171 683l136 78h396l137 -78l-137 -79h-396zM731 143v434l157 92v-683zM731 788v434l157 157v-683z" />
<glyph unicode="I" d="M427 143v434l157 92v-683zM427 788v434l157 157v-683z" />
<glyph unicode="J" d="M96 27v369l157 -92v-120zM123 0l157 157h396l157 -157h-710zM704 184v393l157 92v-642zM704 788v434l157 157v-683z" />
<glyph unicode="K" d="M123 -14v683l157 -92v-434zM123 696v683l157 -157v-434zM171 683l136 78h396l137 -78l-137 -79h-396zM322 802v111l455 452h111v-111l-455 -452h-111zM731 143v434l145 85l12 -7v-669z" />
<glyph unicode="L" d="M150 27v642l157 -92v-393zM150 696v683l157 -157v-434zM177 0l157 157h396l157 -157h-710zM758 184v120l157 92v-369z" />
<glyph unicode="M" d="M92 -14v683l157 -92v-434zM92 696v485l79 79l78 -79v-393zM198 1287l78 78h215l-99 -157h-116zM427 143v415l79 111l78 -125v-401l-78 -157zM427 821v360l79 130l78 -130v-360l-78 -125zM519 1365h215l78 -78l-78 -79h-116zM761 143v434l157 92v-683zM761 788v393l79 79 l78 -79v-485z" />
<glyph unicode="N" d="M123 -14v683l157 -92v-434zM123 696v485l79 79l78 -79v-393zM229 1287l78 78h396l79 -78l-79 -79h-396zM731 143v434l157 92v-683zM731 788v393l78 79l79 -79v-485z" />
<glyph unicode="O" d="M123 184v485l157 -92v-393l-78 -78zM123 696v485l79 79l78 -79v-393zM229 79l78 78h396l79 -78l-79 -79h-396zM229 1287l78 78h396l79 -78l-79 -79h-396zM731 184v393l157 92v-485l-79 -78zM731 788v393l78 79l79 -79v-485z" />
<glyph unicode="P" d="M123 -14v683l157 -92v-434zM123 696v642l157 -157v-393zM150 1365h553l79 -78l-79 -79h-396zM171 683l136 78h396l137 -78l-137 -79h-396zM731 788v393l78 79l79 -79v-471l-12 -7z" />
<glyph unicode="Q" d="M123 184v485l157 -92v-393l-78 -78zM123 696v485l79 79l78 -79v-393zM229 79l78 78h137l157 -157h-294zM229 1287l78 78h396l79 -78l-79 -79h-396zM503 157h201l184 -186v-197zM731 184v393l157 92v-485l-79 -78zM731 788v393l78 79l79 -79v-485z" />
<glyph unicode="R" d="M91 -14v683l157 -92v-434zM91 696v642l157 -157v-393zM118 1365h553l79 -78l-79 -79h-396zM139 683l136 78h396l137 -78l-137 -79h-396zM536 571h181l243 -585l-262 172zM699 788v393l78 79l79 -79v-471l-12 -7z" />
<glyph unicode="S" d="M123 710v471l79 79l78 -79v-393l-145 -85zM150 0l157 157h396l79 -78l-79 -79h-553zM171 683l136 78h396l137 -78l-137 -79h-396zM229 1287l78 78h553l-157 -157h-396zM731 184v393l145 85l12 -7v-471l-79 -78z" />
<glyph unicode="T" d="M3 1365h488l-99 -157h-232zM426 143v415l78 111l79 -125v-401l-79 -157zM426 821v360l78 130l79 -130v-360l-79 -125zM518 1365h489l-157 -157h-233z" />
<glyph unicode="U" d="M123 184v485l157 -92v-393l-78 -78zM123 696v683l157 -157v-434zM229 79l78 78h396l79 -78l-79 -79h-396zM731 184v393l157 92v-485l-79 -78zM731 788v434l157 157v-683z" />
<glyph unicode="V" d="M123 669l188 -43l186 -447l-112 -153zM123 696v683l157 -157v-434zM413 0l100 142l107 -142h-207zM531 179l177 439l180 51l-248 -633zM731 788v434l157 157v-683z" />
<glyph unicode="W" d="M92 184v485l157 -92v-393l-78 -78zM92 696v683l157 -157v-434zM198 79l78 78h116l99 -157h-215zM427 184v360l79 125l78 -125v-360l-78 -129zM427 821v401l79 157l78 -157v-415l-78 -111zM519 0l99 157h116l78 -78l-78 -79h-215zM761 184v393l157 92v-485l-78 -78z M761 788v434l157 157v-683z" />
<glyph unicode="X" d="M111 0v137l312 521h61v-179l-267 -479h-106zM111 1248v117h106l267 -467v-199h-61zM525 477v181h61l313 -521v-137h-99zM525 699v197l267 469h107v-117l-313 -549h-61z" />
<glyph unicode="Y" d="M123 710v669l157 -157v-434l-145 -85zM171 683l136 78h396l137 -78l-137 -79h-396zM427 143v420h157v-420l-78 -157zM731 788v434l157 157v-669l-12 -7z" />
<glyph unicode="Z" d="M123 27v214l268 414h188l-299 -471zM150 0l157 157h396l157 -157h-710zM150 1365h710l-157 -157h-396zM517 848l214 333l157 157v-196l-295 -463z" />
<glyph unicode="[" d="M328 27v642l157 -91v-394zM328 696v642l157 -157v-394zM355 0l157 157h123l157 -157h-437zM355 1365h437l-157 -157h-123z" />
<glyph unicode="\" d="M-51 1416l9 110l118 -55l467 -731l-73 -145zM478 582h166l416 -662v-130l-103 38z" />
<glyph unicode="]" d="M218 0l157 157h123l157 -157h-437zM218 1365h437l-157 -157h-123zM525 184v394l157 91v-642zM525 787v394l157 157v-642z" />
<glyph unicode="^" d="M49 754l366 615h180l366 -615h-151l-307 506l-305 -506h-149z" />
<glyph unicode="_" d="M-7 -138h1024v-126h-1024v126z" />
<glyph unicode="`" d="M214 1720h191l246 -245h-191z" />
<glyph unicode="a" d="M123 -14v683l157 -92v-434zM123 696v642l157 -157v-393zM150 1365h710l-157 -157h-396zM171 683l136 78h396l137 -78l-137 -79h-396zM731 143v434l157 92v-683zM731 788v393l157 157v-642z" />
<glyph unicode="b" d="M123 27v642l157 -92v-393zM123 696v642l157 -157v-393zM150 0l157 157h396l79 -78l-79 -79h-553zM150 1365h553l79 -78l-79 -79h-396zM171 683l136 78h396l79 -78l-79 -79h-396zM731 184v393l78 78l79 -78v-393l-79 -78zM731 788v393l78 79l79 -79v-392l-79 -79z" />
<glyph unicode="c" d="M171 184v485l157 -92v-393l-78 -78zM171 696v485l79 79l78 -79v-393zM277 79l78 78h396l157 -157h-553zM277 1287l78 78h553l-157 -157h-396z" />
<glyph unicode="d" d="M123 27v642l157 -92v-393zM123 696v642l157 -157v-393zM150 0l157 157h396l79 -78l-79 -79h-553zM150 1365h553l79 -78l-79 -79h-396zM731 184v393l157 92v-485l-79 -78zM731 788v393l78 79l79 -79v-485z" />
<glyph unicode="e" d="M164 27v642l157 -92v-393zM164 696v642l157 -157v-393zM191 0l157 157h396l157 -157h-710zM191 1365h710l-157 -157h-396zM212 683l136 78h396l137 -78l-137 -79h-396z" />
<glyph unicode="f" d="M164 -14v683l157 -92v-434zM164 696v642l157 -157v-393zM191 1365h710l-157 -157h-396zM212 683l136 78h396l137 -78l-137 -79h-396z" />
<glyph unicode="g" d="M123 184v485l157 -92v-393l-78 -78zM123 696v485l79 79l78 -79v-393zM229 79l78 78h396l79 -78l-79 -79h-396zM229 1287l78 78h396l-157 -157h-239zM498 683l137 78h68l137 -78l-137 -79h-68zM731 184v393l145 85l12 -7v-471l-79 -78z" />
<glyph unicode="h" d="M123 -14v683l157 -92v-434zM123 696v683l157 -157v-434zM171 683l136 78h396l137 -78l-137 -79h-396zM731 143v434l157 92v-683zM731 788v434l157 157v-683z" />
<glyph unicode="i" d="M427 143v434l157 92v-683zM427 788v434l157 157v-683z" />
<glyph unicode="j" d="M96 27v369l157 -92v-120zM123 0l157 157h396l157 -157h-710zM704 184v393l157 92v-642zM704 788v434l157 157v-683z" />
<glyph unicode="k" d="M123 -14v683l157 -92v-434zM123 696v683l157 -157v-434zM171 683l136 78h396l137 -78l-137 -79h-396zM322 802v111l455 452h111v-111l-455 -452h-111zM731 143v434l145 85l12 -7v-669z" />
<glyph unicode="l" d="M150 27v642l157 -92v-393zM150 696v683l157 -157v-434zM177 0l157 157h396l157 -157h-710zM758 184v120l157 92v-369z" />
<glyph unicode="m" d="M92 -14v683l157 -92v-434zM92 696v485l79 79l78 -79v-393zM198 1287l78 78h215l-99 -157h-116zM427 143v415l79 111l78 -125v-401l-78 -157zM427 821v360l79 130l78 -130v-360l-78 -125zM519 1365h215l78 -78l-78 -79h-116zM761 143v434l157 92v-683zM761 788v393l79 79 l78 -79v-485z" />
<glyph unicode="n" d="M123 -14v683l157 -92v-434zM123 696v485l79 79l78 -79v-393zM229 1287l78 78h396l79 -78l-79 -79h-396zM731 143v434l157 92v-683zM731 788v393l78 79l79 -79v-485z" />
<glyph unicode="o" d="M123 184v485l157 -92v-393l-78 -78zM123 696v485l79 79l78 -79v-393zM229 79l78 78h396l79 -78l-79 -79h-396zM229 1287l78 78h396l79 -78l-79 -79h-396zM731 184v393l157 92v-485l-79 -78zM731 788v393l78 79l79 -79v-485z" />
<glyph unicode="p" d="M123 -14v683l157 -92v-434zM123 696v642l157 -157v-393zM150 1365h553l79 -78l-79 -79h-396zM171 683l136 78h396l137 -78l-137 -79h-396zM731 788v393l78 79l79 -79v-471l-12 -7z" />
<glyph unicode="q" d="M123 184v485l157 -92v-393l-78 -78zM123 696v485l79 79l78 -79v-393zM229 79l78 78h137l157 -157h-294zM229 1287l78 78h396l79 -78l-79 -79h-396zM503 157h201l184 -186v-197zM731 184v393l157 92v-485l-79 -78zM731 788v393l78 79l79 -79v-485z" />
<glyph unicode="r" d="M91 -14v683l157 -92v-434zM91 696v642l157 -157v-393zM118 1365h553l79 -78l-79 -79h-396zM139 683l136 78h396l137 -78l-137 -79h-396zM536 571h181l243 -585l-262 172zM699 788v393l78 79l79 -79v-471l-12 -7z" />
<glyph unicode="s" d="M123 710v471l79 79l78 -79v-393l-145 -85zM150 0l157 157h396l79 -78l-79 -79h-553zM171 683l136 78h396l137 -78l-137 -79h-396zM229 1287l78 78h553l-157 -157h-396zM731 184v393l145 85l12 -7v-471l-79 -78z" />
<glyph unicode="t" d="M3 1365h488l-99 -157h-232zM426 143v415l78 111l79 -125v-401l-79 -157zM426 821v360l78 130l79 -130v-360l-79 -125zM518 1365h489l-157 -157h-233z" />
<glyph unicode="u" d="M123 184v485l157 -92v-393l-78 -78zM123 696v683l157 -157v-434zM229 79l78 78h396l79 -78l-79 -79h-396zM731 184v393l157 92v-485l-79 -78zM731 788v434l157 157v-683z" />
<glyph unicode="v" d="M123 669l188 -43l186 -447l-112 -153zM123 696v683l157 -157v-434zM413 0l100 142l107 -142h-207zM531 179l177 439l180 51l-248 -633zM731 788v434l157 157v-683z" />
<glyph unicode="w" d="M92 184v485l157 -92v-393l-78 -78zM92 696v683l157 -157v-434zM198 79l78 78h116l99 -157h-215zM427 184v360l79 125l78 -125v-360l-78 -129zM427 821v401l79 157l78 -157v-415l-78 -111zM519 0l99 157h116l78 -78l-78 -79h-215zM761 184v393l157 92v-485l-78 -78z M761 788v434l157 157v-683z" />
<glyph unicode="x" d="M111 0v137l312 521h61v-179l-267 -479h-106zM111 1248v117h106l267 -467v-199h-61zM525 477v181h61l313 -521v-137h-99zM525 699v197l267 469h107v-117l-313 -549h-61z" />
<glyph unicode="y" d="M123 710v669l157 -157v-434l-145 -85zM171 683l136 78h396l137 -78l-137 -79h-396zM427 143v420h157v-420l-78 -157zM731 788v434l157 157v-669l-12 -7z" />
<glyph unicode="z" d="M123 27v214l268 414h188l-299 -471zM150 0l157 157h396l157 -157h-710zM150 1365h710l-157 -157h-396zM517 848l214 333l157 157v-196l-295 -463z" />
<glyph unicode="{" d="M237 683l79 78h27l78 -78l-78 -79h-27zM370 184v393l78 78l79 -78v-393l-79 -78zM370 788v393l78 79l79 -79v-393l-79 -78zM476 79l78 78h89l157 -157h-246zM476 1287l78 78h246l-157 -157h-89z" />
<glyph unicode="|" d="M437 -341v1706h137v-1706h-137z" />
<glyph unicode="}" d="M210 0l157 157h89l78 -78l-78 -79h-246zM210 1365h246l78 -78l-78 -79h-89zM483 184v393l78 78l79 -78v-393l-79 -78zM483 788v393l78 79l79 -79v-393l-79 -78zM589 683l78 78h28l78 -78l-78 -79h-28z" />
<glyph unicode="~" d="M14 1250q42 83 75 126q81 105 202 105q78 0 232 -73q103 -50 137 -59q35 -9 63 -9q73 0 122 51q32 31 68 94l84 -50q-53 -105 -108 -154q-80 -70 -181 -70q-52 0 -137 31q-16 6 -149 68q-87 40 -141 40q-67 0 -119 -56q-32 -34 -66 -97z" />
<glyph unicode="&#xa0;" />
<glyph unicode="&#xa1;" d="M399 -54v954l157 -135v-665zM399 1051v335l157 -45v-234z" />
<glyph unicode="&#xa2;" d="M157 389v587l79 79l78 -79v-587l-78 -78zM263 283l78 79h396l157 -157h-553zM263 1082l78 79h553l-157 -157h-396zM460 51v113h157v-113l-79 -78zM460 1201v109l78 79l79 -79v-109h-157z" />
<glyph unicode="&#xa3;" d="M-2 683l79 78h83l108 -78l-108 -79h-83zM207 27v564l73 46l84 -59v-394zM207 775v563l157 -157v-394l-84 -59zM234 0l157 157h396l157 -157h-710zM234 1365h669l-157 -157h-355zM289 683l108 78h139l135 -78l-135 -79h-139z" />
<glyph unicode="&#xa4;" d="M30 164v90l93 93l90 -90l-93 -93h-90zM30 1024v90h90l93 -93l-90 -90zM128 401v227l106 -74v-153l-53 -63zM128 650v227l53 63l53 -63v-154zM204 315l63 53h153l74 -106h-227zM204 963l63 53h227l-63 -106h-164q-24 11 -63 53zM516 262l74 106h153l63 -53l-63 -53h-227z M516 1016h227l63 -53l-63 -53h-153zM776 401v153l106 74v-227l-53 -63zM776 723v154l53 63l53 -63v-227zM797 257l90 90l93 -93v-90h-90zM797 1021l93 93h90v-90l-93 -93z" />
<glyph unicode="&#xa5;" d="M123 710v669l157 -157v-434l-145 -85zM171 485l136 78h396l137 -78l-137 -79h-396zM171 683l136 78h396l137 -78l-137 -79h-396zM427 143v222h157v-222l-78 -157zM731 788v434l157 157v-669l-12 -7z" />
<glyph unicode="&#xa6;" d="M437 314h137v-655h-137v655zM437 687v678h137v-678h-137z" />
<glyph unicode="&#xa7;" d="M96 -246l157 157h457l79 -79l-73 -78h-620zM138 963v222l79 78l78 -78v-234l-72 -72zM147 379v364l78 89l79 -89v-364l-70 -70zM240 1287l79 78h602l-157 -157h-445zM252 856l71 72h387l79 -79l-79 -78h-379zM259 287l69 69h382l79 -79l-79 -78h-369zM733 -66v241l78 79 l79 -79v-241l-79 -78zM733 379v369l78 78l79 -78v-369l-79 -78z" />
<glyph unicode="&#xa8;" d="M232 1475v191h157v-191h-157zM621 1475v191h157v-191h-157z" />
<glyph unicode="&#xa9;" d="M27 334v339l110 -63v-276l-55 -55zM27 692v340l55 55l55 -55v-276zM101 260l55 55h276l63 -110h-339zM101 1106l55 55h339l-63 -110h-276zM352 500v181l71 -41v-140l-35 -36zM352 694v175l31 38l40 -32v-140zM396 920l37 40h225l-71 -71h-150zM401 450l36 36h150l71 -71 h-221zM514 205l64 110h276l55 -55l-55 -55h-340zM514 1161h340l55 -55l-55 -55h-276zM873 334v276l110 63v-339l-55 -55zM873 756v276l55 55l55 -55v-340z" />
<glyph unicode="&#xaa;" d="M123 775v406l79 79l78 -79v-406l-78 -79zM229 670l78 78h396l157 -157h-553zM229 1287l78 78h553l-157 -157h-396zM731 775v406l157 157v-720z" />
<glyph unicode="&#xab;" d="M170 662l193 336h176l-258 -473zM179 365l115 144l245 -421h-181zM470 662l193 336h177l-258 -473zM479 365l115 144l246 -421h-181z" />
<glyph unicode="&#xac;" d="M61 419v127h887v-546h-137v419h-750z" />
<glyph unicode="&#xad;" d="M192 686l145 75h332l150 -75l-150 -82h-332z" />
<glyph unicode="&#xae;" d="M27 334v339l110 -63v-276l-55 -55zM27 692v340l55 55l55 -55v-276zM101 260l55 55h276l63 -110h-339zM101 1106l55 55h339l-63 -110h-276zM327 408v273l71 -41v-161zM327 694v252l71 -71v-140zM340 960h212l35 -36l-35 -35h-141zM354 687l61 36h128l68 -46l-30 -25h-166z M503 635h81l99 -227l-117 76zM514 205l64 110h276l55 -55l-55 -55h-340zM514 1161h340l55 -55l-55 -55h-276zM565 735v140l36 36l35 -36v-169l-13 -12zM873 334v276l110 63v-339l-55 -55zM873 756v276l55 55l55 -55v-340z" />
<glyph unicode="&#xaf;" d="M-7 1504v126h1024v-126h-1024z" />
<glyph unicode="&#xb0;" d="M232 949v286l53 55l53 -55v-286l-53 -55zM307 872l55 53h286l55 -53l-55 -53h-286zM307 1312l55 53h286l55 -53l-55 -53h-286zM672 949v286l53 55l53 -55v-286l-53 -55z" />
<glyph unicode="&#xb1;" d="M74 683l79 78h257l78 -78l-78 -79h-257zM92 79l79 78h689l79 -78l-79 -79h-689zM437 258v319l79 78l78 -78v-319l-78 -78zM437 788v326l79 79l78 -79v-326l-78 -78zM543 683l78 78h258l78 -78l-78 -79h-258z" />
<glyph unicode="&#xb2;" d="M273 573v351l15 9l91 -58v-195zM300 546l107 106h197l106 -106h-410zM300 1365h410l-106 -106h-197zM324 956l83 53h197l83 -53l-83 -53h-197zM632 1036v195l106 107v-351l-15 -8z" />
<glyph unicode="&#xb3;" d="M300 546l106 106h198l106 -106h-410zM300 1365h410l-106 -106h-198zM324 956l82 53h198l82 -53l-82 -53h-198zM631 680v195l106 67v-369zM631 1036v195l106 107v-369z" />
<glyph unicode="&#xb4;" d="M359 1475l246 245h191l-246 -245h-191z" />
<glyph unicode="&#xb5;" d="M177 130l157 -157v-222l-157 -92v471zM177 184v622l157 -157v-465l-78 -78zM283 79l78 78h287l79 -78l-79 -79h-287zM675 184v465l157 157v-622l-79 -78z" />
<glyph unicode="&#xb6;" d="M123 710v471l79 79l78 -79v-393l-145 -85zM171 683l136 78h215l-92 -157h-123zM229 1287l78 78h553l-157 -157h-396zM458 -106l157 92v-327l-157 157v78zM458 184v393l79 130l78 -130v-550zM550 761h153l137 -78l-137 -79h-61zM731 -106l157 92v-327l-157 157v78z M731 184v393l157 92v-642zM731 788v393l157 157v-642z" />
<glyph unicode="&#xb7;" d="M427 418v235l157 57v-328z" />
<glyph unicode="&#xb8;" d="M322 -312l153 271h200l-238 -415z" />
<glyph unicode="&#xb9;" d="M437 1365h274l-107 -106h-61zM632 646v229l106 67v-403zM632 1036v195l106 107v-369z" />
<glyph unicode="&#xba;" d="M123 775v406l79 79l78 -79v-406l-78 -79zM229 670l78 78h396l79 -78l-79 -79h-396zM229 1287l78 78h396l79 -78l-79 -79h-396zM731 775v406l78 79l79 -79v-406l-79 -79z" />
<glyph unicode="&#xbb;" d="M170 88l258 473l111 -137l-192 -336h-177zM170 998h181l180 -277l-116 -144zM470 88l259 473l111 -137l-193 -336h-177zM470 998h182l179 -277l-115 -144z" />
<glyph unicode="&#xbc;" d="M6 1365h219l-85 -106h-49zM94 -5v132l276 528h113l-304 -597zM151 652v223l106 67v-396zM151 1036v195l106 107v-369zM473 859l228 448l85 63v-132l-276 -528zM623 441v351l106 -106v-196l-91 -57zM674 409l66 53h158l66 -53l-66 -53h-158zM899 134v195l106 67v-369z M899 490v196l106 106v-369z" />
<glyph unicode="&#xbd;" d="M6 1365h219l-85 -106h-49zM94 -5v132l276 528h113l-304 -597zM151 652v223l106 67v-396zM151 1036v195l106 107v-369zM473 859l228 448l85 63v-132l-276 -528zM623 27v351l15 9l91 -58v-195zM655 0l85 106h158l85 -106h-328zM655 819h328l-85 -106h-158zM674 409l66 53 h158l66 -53l-66 -53h-158zM899 490v196l106 106v-351l-15 -8z" />
<glyph unicode="&#xbe;" d="M15 546l85 106h72l85 -106h-242zM15 1365h242l-85 -106h-72zM34 956l66 53h72l66 -53l-66 -53h-72zM126 -5v132l276 528h113l-304 -597zM183 680v195l106 67v-369zM183 1036v195l106 107v-369zM505 859l228 448l85 63v-132l-276 -528zM614 441v351l106 -106v-196l-91 -57 zM665 409l66 53h158l66 -53l-66 -53h-158zM890 134v195l106 67v-369zM890 490v196l106 106v-369z" />
<glyph unicode="&#xbf;" d="M164 27v641l157 -91v-393zM191 0l157 157h396l157 -157h-710zM217 683l151 78h97l157 -157h-274zM464 1019v346l157 -78v-190zM465 806v170l157 -157v-170z" />
<glyph unicode="&#xc0;" d="M123 -14v683l157 -92v-434zM123 696v642l157 -157v-393zM150 1365h710l-157 -157h-396zM171 683l136 78h396l137 -78l-137 -79h-396zM214 1720h191l246 -245h-191zM731 143v434l157 92v-683zM731 788v393l157 157v-642z" />
<glyph unicode="&#xc1;" d="M123 -14v683l157 -92v-434zM123 696v642l157 -157v-393zM150 1365h710l-157 -157h-396zM171 683l136 78h396l137 -78l-137 -79h-396zM359 1475l246 245h191l-246 -245h-191zM731 143v434l157 92v-683zM731 788v393l157 157v-642z" />
<glyph unicode="&#xc2;" d="M123 -14v683l157 -92v-434zM123 696v642l157 -157v-393zM150 1365h710l-157 -157h-396zM171 683l136 78h396l137 -78l-137 -79h-396zM178 1475l305 263v-177l-87 -86h-218zM527 1561v177l305 -263h-218zM731 143v434l157 92v-683zM731 788v393l157 157v-642z" />
<glyph unicode="&#xc3;" d="M123 -14v683l157 -92v-434zM123 696v642l157 -157v-393zM150 1365h710l-157 -157h-396zM159 1511l78 93l105 -46l-78 -92zM171 683l136 78h396l137 -78l-137 -79h-396zM264 1635l86 100l396 -174l-85 -101zM669 1638l78 93l105 -46l-78 -93zM731 143v434l157 92v-683z M731 788v393l157 157v-642z" />
<glyph unicode="&#xc4;" d="M123 -14v683l157 -92v-434zM123 696v642l157 -157v-393zM150 1365h710l-157 -157h-396zM171 683l136 78h396l137 -78l-137 -79h-396zM232 1475v191h157v-191h-157zM621 1475v191h157v-191h-157zM731 143v434l157 92v-683zM731 788v393l157 157v-642z" />
<glyph unicode="&#xc5;" d="M123 -14v683l157 -92v-434zM123 696v642l157 -157v-393zM150 1365h710l-157 -157h-396zM171 683l136 78h396l137 -78l-137 -79h-396zM328 1502v300l106 -109v-82zM355 1475l110 106h81l110 -106h-301zM355 1830h301l-110 -106h-81zM577 1611v82l106 109v-300zM731 143 v434l157 92v-683zM731 788v393l157 157v-642z" />
<glyph unicode="&#xc6;" d="M31 -14v683l157 -92v-434zM31 696v642l157 -157v-393zM58 1365h468l-92 -157h-219zM79 683l136 78h219l85 -78l-85 -79h-219zM461 27v550l78 73l79 -73v-393zM461 788v393l78 126l79 -126v-393l-79 -73zM488 0l157 157h192l157 -157h-506zM553 1365h441l-157 -157h-192z M560 683l85 78h192l136 -78l-136 -79h-192z" />
<glyph unicode="&#xc7;" d="M171 184v485l157 -92v-393l-78 -78zM171 696v485l79 79l78 -79v-393zM277 79l78 78h396l157 -157h-553zM277 1287l78 78h553l-157 -157h-396zM322 -312l154 271h199l-237 -415z" />
<glyph unicode="&#xc8;" d="M164 27v642l157 -92v-393zM164 696v642l157 -157v-393zM191 0l157 157h396l157 -157h-710zM191 1365h710l-157 -157h-396zM212 683l136 78h396l137 -78l-137 -79h-396zM215 1720h191l246 -245h-191z" />
<glyph unicode="&#xc9;" d="M164 27v642l157 -92v-393zM164 696v642l157 -157v-393zM191 0l157 157h396l157 -157h-710zM191 1365h710l-157 -157h-396zM212 683l136 78h396l137 -78l-137 -79h-396zM359 1475l246 245h191l-246 -245h-191z" />
<glyph unicode="&#xca;" d="M164 27v642l157 -92v-393zM164 696v642l157 -157v-393zM191 0l157 157h396l157 -157h-710zM191 1365h710l-157 -157h-396zM206 1475l305 263v-177l-87 -86h-218zM212 683l136 78h396l137 -78l-137 -79h-396zM555 1561v177l305 -263h-218z" />
<glyph unicode="&#xcb;" d="M164 27v642l157 -92v-393zM164 696v642l157 -157v-393zM191 0l157 157h396l157 -157h-710zM191 1365h710l-157 -157h-396zM212 683l136 78h396l137 -78l-137 -79h-396zM260 1475v191h157v-191h-157zM649 1475v191h157v-191h-157z" />
<glyph unicode="&#xcc;" d="M214 1720h191l246 -245h-191zM426 143v434l157 92v-683zM426 788v434l157 157v-683z" />
<glyph unicode="&#xcd;" d="M359 1475l246 245h191l-246 -245h-191zM427 143v434l157 92v-683zM427 788v434l157 157v-683z" />
<glyph unicode="&#xce;" d="M178 1475l305 263v-177l-87 -86h-218zM427 143v434l157 92v-683zM427 788v434l157 157v-683zM527 1561v177l305 -263h-218z" />
<glyph unicode="&#xcf;" d="M315 1475v190h157v-190h-157zM427 143v434l157 92v-683zM427 788v434l157 157v-683zM539 1475v190h157v-190h-157z" />
<glyph unicode="&#xd0;" d="M-10 683l79 78h27l78 -78l-78 -79h-27zM123 27v550l78 78l79 -78v-393zM123 788v550l157 -157v-393l-79 -78zM150 0l157 157h396l79 -78l-79 -79h-553zM150 1365h553l79 -78l-79 -79h-396zM229 683l78 78h145l135 -78l-135 -79h-145zM731 184v393l157 92v-485l-79 -78z M731 788v393l78 79l79 -79v-485z" />
<glyph unicode="&#xd1;" d="M123 -14v683l157 -92v-434zM123 696v485l79 79l78 -79v-393zM159 1511l78 93l105 -46l-78 -92zM229 1287l78 78h396l79 -78l-79 -79h-396zM264 1635l86 100l396 -174l-85 -101zM669 1638l78 93l105 -46l-78 -93zM731 143v434l157 92v-683zM731 788v393l78 79l79 -79v-485 z" />
<glyph unicode="&#xd2;" d="M123 184v485l157 -92v-393l-78 -78zM123 696v485l79 79l78 -79v-393zM187 1720h191l246 -245h-191zM229 79l78 78h396l79 -78l-79 -79h-396zM229 1287l78 78h396l79 -78l-79 -79h-396zM731 184v393l157 92v-485l-79 -78zM731 788v393l78 79l79 -79v-485z" />
<glyph unicode="&#xd3;" d="M123 184v485l157 -92v-393l-78 -78zM123 696v485l79 79l78 -79v-393zM229 79l78 78h396l79 -78l-79 -79h-396zM229 1287l78 78h396l79 -78l-79 -79h-396zM387 1475l246 245h191l-246 -245h-191zM731 184v393l157 92v-485l-79 -78zM731 788v393l78 79l79 -79v-485z" />
<glyph unicode="&#xd4;" d="M123 184v485l157 -92v-393l-78 -78zM123 696v485l79 79l78 -79v-393zM178 1475l305 263v-177l-87 -86h-218zM229 79l78 78h396l79 -78l-79 -79h-396zM229 1287l78 78h396l79 -78l-79 -79h-396zM527 1561v177l305 -263h-218zM731 184v393l157 92v-485l-79 -78zM731 788 v393l78 79l79 -79v-485z" />
<glyph unicode="&#xd5;" d="M123 184v485l157 -92v-393l-78 -78zM123 696v485l79 79l78 -79v-393zM159 1511l78 93l105 -46l-78 -92zM229 79l78 78h396l79 -78l-79 -79h-396zM229 1287l78 78h396l79 -78l-79 -79h-396zM264 1635l86 100l396 -174l-85 -101zM669 1638l78 93l105 -46l-78 -93zM731 184 v393l157 92v-485l-79 -78zM731 788v393l78 79l79 -79v-485z" />
<glyph unicode="&#xd6;" d="M123 184v485l157 -92v-393l-78 -78zM123 696v485l79 79l78 -79v-393zM229 79l78 78h396l79 -78l-79 -79h-396zM229 1287l78 78h396l79 -78l-79 -79h-396zM232 1475v191h157v-191h-157zM621 1475v191h157v-191h-157zM731 184v393l157 92v-485l-79 -78zM731 788v393l78 79 l79 -79v-485z" />
<glyph unicode="&#xd7;" d="M138 279v111l243 279h111v-111l-243 -279h-111zM138 975v111h111l243 -279v-111h-111zM519 558v111h111l243 -279v-111h-111zM519 696v111l243 279h111v-111l-243 -279h-111z" />
<glyph unicode="&#xd8;" d="M-15 -96l130 227l100 -103l-108 -203l-106 -42zM123 184v485l157 -92v-393l-78 -78zM123 696v485l79 79l78 -79v-393zM229 79l78 78h396l79 -78l-79 -79h-396zM229 1287l78 78h396l79 -78l-79 -79h-396zM317 218v281l377 669v-264zM731 184v393l157 92v-485l-78 -78z M731 788v393l79 79l78 -79v-485zM786 1342l108 201l118 54l14 -113l-139 -239z" />
<glyph unicode="&#xd9;" d="M123 184v485l157 -92v-393l-78 -78zM123 696v683l157 -157v-434zM214 1720h191l246 -245h-191zM229 79l78 78h396l79 -78l-79 -79h-396zM731 184v393l157 92v-485l-79 -78zM731 788v434l157 157v-683z" />
<glyph unicode="&#xda;" d="M123 184v485l157 -92v-393l-78 -78zM123 696v683l157 -157v-434zM229 79l78 78h396l79 -78l-79 -79h-396zM359 1475l246 245h191l-246 -245h-191zM731 184v393l157 92v-485l-79 -78zM731 788v434l157 157v-683z" />
<glyph unicode="&#xdb;" d="M123 184v485l157 -92v-393l-78 -78zM123 696v683l157 -157v-434zM178 1475l305 263v-177l-87 -86h-218zM229 79l78 78h396l79 -78l-79 -79h-396zM527 1561v177l305 -263h-218zM731 184v393l157 92v-485l-79 -78zM731 788v434l157 157v-683z" />
<glyph unicode="&#xdc;" d="M123 184v485l157 -92v-393l-78 -78zM123 696v683l157 -157v-434zM229 79l78 78h396l79 -78l-79 -79h-396zM232 1475v191h157v-191h-157zM621 1475v191h157v-191h-157zM731 184v393l157 92v-485l-79 -78zM731 788v434l157 157v-683z" />
<glyph unicode="&#xdd;" d="M123 710v669l157 -157v-434l-145 -85zM171 683l136 78h396l137 -78l-137 -79h-396zM359 1475l246 245h191l-246 -245h-191zM427 143v420h157v-420l-78 -157zM731 788v434l157 157v-669l-12 -7z" />
<glyph unicode="&#xde;" d="M123 -14v413l157 -92v-164zM123 427v577l157 -93v-392zM123 1031v348l157 -157v-99zM171 414l136 78h396l137 -78l-137 -79h-396zM171 1017l136 79h396l137 -79l-137 -78h-396zM731 519v392l145 86l12 -7v-550l-12 -6z" />
<glyph unicode="&#xdf;" d="M0 710v471l79 79l78 -79v-393l-145 -85zM27 0l157 157h123l79 -78l-79 -79h-280zM48 683l136 78h123l137 -78l-137 -79h-123zM106 1287l78 78h280l-157 -157h-123zM335 184v393l145 85l12 -7v-471l-78 -78zM519 710v471l78 79l79 -79v-393l-145 -85zM546 0l157 157h123 l79 -78l-79 -79h-280zM567 683l136 78h123l137 -78l-137 -79h-123zM625 1287l78 78h280l-157 -157h-123zM853 184v393l145 85l12 -7v-471l-78 -78z" />
<glyph unicode="&#xe0;" d="M123 -14v683l157 -92v-434zM123 696v642l157 -157v-393zM150 1365h710l-157 -157h-396zM171 683l136 78h396l137 -78l-137 -79h-396zM214 1720h191l246 -245h-191zM731 143v434l157 92v-683zM731 788v393l157 157v-642z" />
<glyph unicode="&#xe1;" d="M123 -14v683l157 -92v-434zM123 696v642l157 -157v-393zM150 1365h710l-157 -157h-396zM171 683l136 78h396l137 -78l-137 -79h-396zM359 1475l246 245h191l-246 -245h-191zM731 143v434l157 92v-683zM731 788v393l157 157v-642z" />
<glyph unicode="&#xe2;" d="M123 -14v683l157 -92v-434zM123 696v642l157 -157v-393zM150 1365h710l-157 -157h-396zM171 683l136 78h396l137 -78l-137 -79h-396zM178 1475l305 263v-177l-87 -86h-218zM527 1561v177l305 -263h-218zM731 143v434l157 92v-683zM731 788v393l157 157v-642z" />
<glyph unicode="&#xe3;" d="M123 -14v683l157 -92v-434zM123 696v642l157 -157v-393zM150 1365h710l-157 -157h-396zM159 1511l78 93l105 -46l-78 -92zM171 683l136 78h396l137 -78l-137 -79h-396zM264 1635l86 100l396 -174l-85 -101zM669 1638l78 93l105 -46l-78 -93zM731 143v434l157 92v-683z M731 788v393l157 157v-642z" />
<glyph unicode="&#xe4;" d="M123 -14v683l157 -92v-434zM123 696v642l157 -157v-393zM150 1365h710l-157 -157h-396zM171 683l136 78h396l137 -78l-137 -79h-396zM232 1475v191h157v-191h-157zM621 1475v191h157v-191h-157zM731 143v434l157 92v-683zM731 788v393l157 157v-642z" />
<glyph unicode="&#xe5;" d="M123 -14v683l157 -92v-434zM123 696v642l157 -157v-393zM150 1365h710l-157 -157h-396zM171 683l136 78h396l137 -78l-137 -79h-396zM328 1502v300l106 -109v-82zM355 1475l110 106h81l110 -106h-301zM355 1830h301l-110 -106h-81zM577 1611v82l106 109v-300zM731 143 v434l157 92v-683zM731 788v393l157 157v-642z" />
<glyph unicode="&#xe6;" d="M31 -14v683l157 -92v-434zM31 696v642l157 -157v-393zM58 1365h468l-92 -157h-219zM79 683l136 78h219l85 -78l-85 -79h-219zM461 27v550l78 73l79 -73v-393zM461 788v393l78 126l79 -126v-393l-79 -73zM488 0l157 157h192l157 -157h-506zM553 1365h441l-157 -157h-192z M560 683l85 78h192l136 -78l-136 -79h-192z" />
<glyph unicode="&#xe7;" d="M171 184v485l157 -92v-393l-78 -78zM171 696v485l79 79l78 -79v-393zM277 79l78 78h396l157 -157h-553zM277 1287l78 78h553l-157 -157h-396zM322 -312l154 271h199l-237 -415z" />
<glyph unicode="&#xe8;" d="M164 27v642l157 -92v-393zM164 696v642l157 -157v-393zM191 0l157 157h396l157 -157h-710zM191 1365h710l-157 -157h-396zM212 683l136 78h396l137 -78l-137 -79h-396zM215 1720h191l246 -245h-191z" />
<glyph unicode="&#xe9;" d="M164 27v642l157 -92v-393zM164 696v642l157 -157v-393zM191 0l157 157h396l157 -157h-710zM191 1365h710l-157 -157h-396zM212 683l136 78h396l137 -78l-137 -79h-396zM359 1475l246 245h191l-246 -245h-191z" />
<glyph unicode="&#xea;" d="M164 27v642l157 -92v-393zM164 696v642l157 -157v-393zM191 0l157 157h396l157 -157h-710zM191 1365h710l-157 -157h-396zM206 1475l305 263v-177l-87 -86h-218zM212 683l136 78h396l137 -78l-137 -79h-396zM555 1561v177l305 -263h-218z" />
<glyph unicode="&#xeb;" d="M164 27v642l157 -92v-393zM164 696v642l157 -157v-393zM191 0l157 157h396l157 -157h-710zM191 1365h710l-157 -157h-396zM212 683l136 78h396l137 -78l-137 -79h-396zM260 1475v191h157v-191h-157zM649 1475v191h157v-191h-157z" />
<glyph unicode="&#xec;" d="M214 1720h191l246 -245h-191zM426 143v434l157 92v-683zM426 788v434l157 157v-683z" />
<glyph unicode="&#xed;" d="M359 1475l246 245h191l-246 -245h-191zM427 143v434l157 92v-683zM427 788v434l157 157v-683z" />
<glyph unicode="&#xee;" d="M178 1475l305 263v-177l-87 -86h-218zM427 143v434l157 92v-683zM427 788v434l157 157v-683zM527 1561v177l305 -263h-218z" />
<glyph unicode="&#xef;" d="M315 1475v190h157v-190h-157zM427 143v434l157 92v-683zM427 788v434l157 157v-683zM539 1475v190h157v-190h-157z" />
<glyph unicode="&#xf0;" d="M-10 683l79 78h27l78 -78l-78 -79h-27zM123 27v550l78 78l79 -78v-393zM123 788v550l157 -157v-393l-79 -78zM150 0l157 157h396l79 -78l-79 -79h-553zM150 1365h553l79 -78l-79 -79h-396zM229 683l78 78h145l135 -78l-135 -79h-145zM731 184v393l157 92v-485l-79 -78z M731 788v393l78 79l79 -79v-485z" />
<glyph unicode="&#xf1;" d="M123 -14v683l157 -92v-434zM123 696v485l79 79l78 -79v-393zM159 1511l78 93l105 -46l-78 -92zM229 1287l78 78h396l79 -78l-79 -79h-396zM264 1635l86 100l396 -174l-85 -101zM669 1638l78 93l105 -46l-78 -93zM731 143v434l157 92v-683zM731 788v393l78 79l79 -79v-485 z" />
<glyph unicode="&#xf2;" d="M123 184v485l157 -92v-393l-78 -78zM123 696v485l79 79l78 -79v-393zM187 1720h191l246 -245h-191zM229 79l78 78h396l79 -78l-79 -79h-396zM229 1287l78 78h396l79 -78l-79 -79h-396zM731 184v393l157 92v-485l-79 -78zM731 788v393l78 79l79 -79v-485z" />
<glyph unicode="&#xf3;" d="M123 184v485l157 -92v-393l-78 -78zM123 696v485l79 79l78 -79v-393zM229 79l78 78h396l79 -78l-79 -79h-396zM229 1287l78 78h396l79 -78l-79 -79h-396zM387 1475l246 245h191l-246 -245h-191zM731 184v393l157 92v-485l-79 -78zM731 788v393l78 79l79 -79v-485z" />
<glyph unicode="&#xf4;" d="M123 184v485l157 -92v-393l-78 -78zM123 696v485l79 79l78 -79v-393zM178 1475l305 263v-177l-87 -86h-218zM229 79l78 78h396l79 -78l-79 -79h-396zM229 1287l78 78h396l79 -78l-79 -79h-396zM527 1561v177l305 -263h-218zM731 184v393l157 92v-485l-79 -78zM731 788 v393l78 79l79 -79v-485z" />
<glyph unicode="&#xf5;" d="M123 184v485l157 -92v-393l-78 -78zM123 696v485l79 79l78 -79v-393zM159 1511l78 93l105 -46l-78 -92zM229 79l78 78h396l79 -78l-79 -79h-396zM229 1287l78 78h396l79 -78l-79 -79h-396zM264 1635l86 100l396 -174l-85 -101zM669 1638l78 93l105 -46l-78 -93zM731 184 v393l157 92v-485l-79 -78zM731 788v393l78 79l79 -79v-485z" />
<glyph unicode="&#xf6;" d="M123 184v485l157 -92v-393l-78 -78zM123 696v485l79 79l78 -79v-393zM229 79l78 78h396l79 -78l-79 -79h-396zM229 1287l78 78h396l79 -78l-79 -79h-396zM232 1475v191h157v-191h-157zM621 1475v191h157v-191h-157zM731 184v393l157 92v-485l-79 -78zM731 788v393l78 79 l79 -79v-485z" />
<glyph unicode="&#xf7;" d="M82 683l79 78h689l79 -78l-79 -79h-689zM399 336l106 106l106 -106l-106 -106zM399 1023l106 106l106 -106l-106 -105z" />
<glyph unicode="&#xf8;" d="M-15 -96l130 227l100 -103l-108 -203l-106 -42zM123 184v485l157 -92v-393l-78 -78zM123 696v485l79 79l78 -79v-393zM229 79l78 78h396l79 -78l-79 -79h-396zM229 1287l78 78h396l79 -78l-79 -79h-396zM317 218v281l377 669v-264zM731 184v393l157 92v-485l-78 -78z M731 788v393l79 79l78 -79v-485zM786 1342l108 201l118 54l14 -113l-139 -239z" />
<glyph unicode="&#xf9;" d="M123 184v485l157 -92v-393l-78 -78zM123 696v683l157 -157v-434zM214 1720h191l246 -245h-191zM229 79l78 78h396l79 -78l-79 -79h-396zM731 184v393l157 92v-485l-79 -78zM731 788v434l157 157v-683z" />
<glyph unicode="&#xfa;" d="M123 184v485l157 -92v-393l-78 -78zM123 696v683l157 -157v-434zM229 79l78 78h396l79 -78l-79 -79h-396zM359 1475l246 245h191l-246 -245h-191zM731 184v393l157 92v-485l-79 -78zM731 788v434l157 157v-683z" />
<glyph unicode="&#xfb;" d="M123 184v485l157 -92v-393l-78 -78zM123 696v683l157 -157v-434zM178 1475l305 263v-177l-87 -86h-218zM229 79l78 78h396l79 -78l-79 -79h-396zM527 1561v177l305 -263h-218zM731 184v393l157 92v-485l-79 -78zM731 788v434l157 157v-683z" />
<glyph unicode="&#xfc;" d="M123 184v485l157 -92v-393l-78 -78zM123 696v683l157 -157v-434zM229 79l78 78h396l79 -78l-79 -79h-396zM232 1475v191h157v-191h-157zM621 1475v191h157v-191h-157zM731 184v393l157 92v-485l-79 -78zM731 788v434l157 157v-683z" />
<glyph unicode="&#xfd;" d="M123 710v669l157 -157v-434l-145 -85zM171 683l136 78h396l137 -78l-137 -79h-396zM359 1475l246 245h191l-246 -245h-191zM427 143v420h157v-420l-78 -157zM731 788v434l157 157v-669l-12 -7z" />
<glyph unicode="&#xfe;" d="M123 -14v413l157 -92v-164zM123 427v577l157 -93v-392zM123 1031v348l157 -157v-99zM171 414l136 78h396l137 -78l-137 -79h-396zM171 1017l136 79h396l137 -79l-137 -78h-396zM731 519v392l145 86l12 -7v-550l-12 -6z" />
<glyph unicode="&#xff;" d="M123 710v669l157 -157v-434l-145 -85zM171 683l136 78h396l137 -78l-137 -79h-396zM232 1475v191h157v-191h-157zM427 143v420h157v-420l-78 -157zM621 1475v191h157v-191h-157zM731 788v434l157 157v-669l-12 -7z" />
<glyph unicode="&#x152;" d="M38 184v485l157 -91v-394l-78 -78zM38 696v485l79 79l78 -79v-394zM144 79l78 78h205l106 -157h-311zM144 1287l78 78h311l-106 -157h-205zM468 171v498l157 -91v-407l-79 -116zM468 696v499l78 116l79 -116v-408zM516 683l136 78h192l136 -78l-136 -79h-192zM560 0 l106 157h178l157 -157h-441zM560 1365h441l-157 -157h-178z" />
<glyph unicode="&#x153;" d="M38 184v485l157 -91v-394l-78 -78zM38 696v485l79 79l78 -79v-394zM144 79l78 78h205l106 -157h-311zM144 1287l78 78h311l-106 -157h-205zM468 171v498l157 -91v-407l-79 -116zM468 696v499l78 116l79 -116v-408zM516 683l136 78h192l136 -78l-136 -79h-192zM560 0 l106 157h178l157 -157h-441zM560 1365h441l-157 -157h-178z" />
<glyph unicode="&#x178;" d="M123 710v669l157 -157v-434l-145 -85zM171 683l136 78h396l137 -78l-137 -79h-396zM232 1475v191h157v-191h-157zM427 143v420h157v-420l-78 -157zM621 1475v191h157v-191h-157zM731 788v434l157 157v-669l-12 -7z" />
<glyph unicode="&#x2c6;" d="M178 1475l305 263v-177l-87 -86h-218zM527 1561v177l305 -263h-218z" />
<glyph unicode="&#x2dc;" d="M159 1511l78 93l105 -46l-78 -92zM264 1635l86 100l396 -174l-85 -101zM669 1638l78 93l105 -46l-78 -93z" />
<glyph unicode="&#x2000;" horiz-adv-x="915" />
<glyph unicode="&#x2001;" horiz-adv-x="1830" />
<glyph unicode="&#x2002;" horiz-adv-x="915" />
<glyph unicode="&#x2003;" horiz-adv-x="1830" />
<glyph unicode="&#x2004;" horiz-adv-x="610" />
<glyph unicode="&#x2005;" horiz-adv-x="457" />
<glyph unicode="&#x2006;" horiz-adv-x="305" />
<glyph unicode="&#x2007;" horiz-adv-x="305" />
<glyph unicode="&#x2008;" horiz-adv-x="228" />
<glyph unicode="&#x2009;" horiz-adv-x="366" />
<glyph unicode="&#x200a;" horiz-adv-x="101" />
<glyph unicode="&#x2010;" d="M192 686l145 75h332l150 -75l-150 -82h-332z" />
<glyph unicode="&#x2011;" d="M192 686l145 75h332l150 -75l-150 -82h-332z" />
<glyph unicode="&#x2012;" d="M192 686l145 75h332l150 -75l-150 -82h-332z" />
<glyph unicode="&#x2013;" d="M157 686l145 75h400l151 -75l-151 -82h-400z" />
<glyph unicode="&#x2014;" d="M-177 686l145 75h1070l150 -75l-150 -82h-1070z" />
<glyph unicode="&#x2018;" d="M355 952l187 462l113 -117l-138 -345h-162z" />
<glyph unicode="&#x2019;" d="M338 982l154 383h180l-208 -513z" />
<glyph unicode="&#x201a;" d="M338 -94l154 384h180l-208 -513z" />
<glyph unicode="&#x201c;" d="M212 952l187 462l113 -117l-138 -345h-162zM499 952l187 462l113 -117l-138 -345h-162z" />
<glyph unicode="&#x201d;" d="M212 1020l138 345h162l-187 -462zM499 1020l138 345h162l-187 -462z" />
<glyph unicode="&#x201e;" d="M212 -140l138 345h162l-187 -462zM499 -140l138 345h162l-187 -462z" />
<glyph unicode="&#x2022;" d="M224 694q0 121 84 202q86 82 204 82q113 0 196 -83q84 -83 84 -201t-83 -201t-201 -83q-116 0 -199 82q-85 84 -85 202z" />
<glyph unicode="&#x2026;" d="M51 35v236l157 56v-327zM426 35v236l157 56v-327zM802 35v236l157 56v-327z" />
<glyph unicode="&#x202f;" horiz-adv-x="366" />
<glyph unicode="&#x2039;" d="M320 662l193 336h176l-258 -473zM329 365l115 144l245 -421h-181z" />
<glyph unicode="&#x203a;" d="M320 88l258 473l111 -137l-192 -336h-177zM320 998h181l180 -277l-116 -144z" />
<glyph unicode="&#x205f;" horiz-adv-x="457" />
<glyph unicode="&#x20ac;" d="M51 547l79 78h27l78 -78l-78 -79h-27zM51 819l79 79h27l78 -79l-78 -78h-27zM184 184v256l78 79l79 -79v-256l-79 -78zM184 652v61l78 79l79 -79v-61l-79 -79zM184 925v256l78 79l79 -79v-256l-79 -78zM290 79l78 78h396l157 -157h-553zM290 547l78 78h253l137 -78 l-137 -79h-253zM290 819l78 79h253l137 -79l-137 -78h-253zM290 1287l78 78h553l-157 -157h-396z" />
<glyph unicode="&#x2122;" d="M12 1365h231l-58 -106h-71zM200 668v205l53 88l53 -88v-205l-53 -88zM200 1056v176l53 88l53 -88v-176l-53 -87zM262 1365h232l-102 -106h-71zM502 577v390l106 -59v-229zM502 986v259l53 50l53 -50v-201zM574 1312l51 53h123l-59 -106h-64zM704 668v197l53 88l53 -88 v-197l-53 -88zM704 1056v176l53 88l53 -88v-176l-53 -87zM766 1365h123l50 -53l-50 -53h-64zM904 679v229l106 59v-390zM904 1044v201l53 50l53 -50v-259z" />
<glyph unicode="&#x25fc;" horiz-adv-x="1365" d="M0 0v1365h1365v-1365h-1365z" />
<glyph unicode="&#xfb01;" d="M-24 -14v683l157 -92v-434zM-24 696v642l157 -157v-393zM3 1365h710l-157 -157h-396zM24 683l136 78h396l137 -78l-137 -79h-396zM877 143v434l157 92v-683zM877 788v434l157 157v-683z" />
<glyph unicode="&#xfb02;" d="M-300 -14v683l157 -92v-434zM-300 696v642l157 -157v-393zM-273 1365h710l-157 -157h-396zM-252 683l136 78h396l137 -78l-137 -79h-396zM601 27v642l157 -92v-393zM601 696v683l157 -157v-434zM628 0l157 157h396l157 -157h-710zM1209 184v120l157 92v-369z" />
</font>
</defs>
</svg>
