<?xml version="1.0" standalone="no"?>
<!DOCTYPE svg PUBLIC "-//W3C//DTD SVG 1.1//EN" "http://www.w3.org/Graphics/SVG/1.1/DTD/svg11.dtd" >
<svg xmlns="http://www.w3.org/2000/svg" xmlns:xlink="http://www.w3.org/1999/xlink" version="1.1">
<metadata></metadata>
<defs>
<font id="quartz_mdmregular" horiz-adv-x="940" >
<font-face units-per-em="2048" ascent="1638" descent="-410" />
<missing-glyph horiz-adv-x="550" />
<glyph horiz-adv-x="0" />
<glyph horiz-adv-x="682" />
<glyph unicode=" "  horiz-adv-x="550" />
<glyph unicode="&#x09;" horiz-adv-x="550" />
<glyph unicode="&#xa0;" horiz-adv-x="550" />
<glyph unicode="!" horiz-adv-x="325" d="M82 0v295h162v-295h-162zM82 526v676l162 164v-965z" />
<glyph unicode="&#x22;" horiz-adv-x="569" d="M43 1364h133l-26 -549h-78zM393 1364h133l-28 -549h-78z" />
<glyph unicode="#" horiz-adv-x="1138" d="M68 383l28 137h221l68 326h-219l29 137h221l80 383h135l-80 -383h164l82 383h137l-82 -383h217l-29 -137h-217l-69 -326h217l-29 -137h-217l-82 -383h-137l82 383h-166l-80 -383h-137l82 383h-219zM453 520h163l70 326h-164z" />
<glyph unicode="$" d="M82 705v469l82 81l80 -81v-375zM94 0l178 164h402l82 -78l-80 -86h-98l-105 90l-92 -90h-287zM119 682l153 90h398l153 -90l-153 -76h-398zM197 1286l77 80h107l92 -94l98 94h211l-65 -164h-443zM393 -20l80 65l84 -68v-137l-82 -67l-82 77v130zM395 1397v125l78 80 l84 -76v-129l-84 -78zM696 193v387l162 82v-469l-80 -82z" />
<glyph unicode="%" horiz-adv-x="1724" d="M41 854v322l86 79l84 -81v-320l-84 -82zM152 743l86 88h323l82 -88l-82 -73h-325zM154 1280l82 86h327l80 -86l-82 -78h-325zM352 0l371 606h188l-366 -606h-193zM590 854v322l80 81l84 -79v-322l-84 -84zM844 811l336 555h190l-434 -719zM971 197v321l86 82l84 -82v-323 l-84 -80zM1081 86l84 78h324l84 -78l-82 -86h-328zM1081 623l84 77h326l82 -75l-84 -90h-324zM1520 197v321l77 84l84 -82v-323l-82 -82z" />
<glyph unicode="&#x26;" horiz-adv-x="1089" d="M82 193v469l162 -82v-387l-80 -82zM82 705v469l82 81l80 -81v-375zM190 84l82 80h398l84 -80l-84 -84h-398zM190 1282l82 84h398l84 -84l-84 -80h-398zM371 684l137 88h166l82 -90l-82 -76h-142zM700 193v385l82 75l82 -75v-388l-84 -77zM702 799v172l80 86l84 -86v-174 l-84 -90zM809 680l88 92h78l158 -90l-138 -76h-102z" />
<glyph unicode="'" horiz-adv-x="364" d="M115 1364h133l-27 -549h-78z" />
<glyph unicode="(" horiz-adv-x="509" d="M82 193v469l162 -82v-387l-80 -82zM82 705v469l82 81l80 -81v-375zM190 84l82 80h90l121 -164h-211zM190 1282l82 84h211l-121 -164h-90z" />
<glyph unicode=")" horiz-adv-x="509" d="M27 0l123 164h90l82 -80l-82 -84h-213zM27 1366h213l82 -84l-82 -80h-90zM266 193v374l162 95v-469l-82 -82zM266 784v390l80 81l82 -81v-469z" />
<glyph unicode="*" horiz-adv-x="761" d="M41 829l12 105l232 133l73 -55v-90l-221 -134zM299 1110v246l84 63l84 -65v-248l-84 -62zM401 920v96l78 47l228 -127l14 -98l-84 -50z" />
<glyph unicode="+" horiz-adv-x="1064" d="M27 629v135h436v430h137v-430h436v-135h-436v-430h-135v430h-438z" />
<glyph unicode="," horiz-adv-x="272" d="M-27 -178l90 473h168l-90 -473h-168z" />
<glyph unicode="-" horiz-adv-x="651" d="M41 410l111 163h456l-108 -163h-459z" />
<glyph unicode="." horiz-adv-x="245" d="M41 0v295h164v-295h-164z" />
<glyph unicode="/" horiz-adv-x="1101" d="M41 0l369 606h190l-367 -606h-192zM530 811l336 555h195l-436 -719z" />
<glyph unicode="0" d="M82 193v469l162 -82v-387l-80 -82zM82 705v469l82 81l80 -81v-375zM190 84l82 80h398l84 -80l-84 -84h-398zM190 1282l82 84h398l84 -84l-84 -80h-398zM696 193v387l162 82v-469l-80 -82zM696 799v375l82 81l80 -81v-469z" />
<glyph unicode="1" horiz-adv-x="886" d="M82 1366h491l-163 -164h-166zM436 164v416l166 82v-662zM436 799v375l166 165v-634z" />
<glyph unicode="2" d="M82 193v469l162 -82v-387l-80 -82zM82 1202l190 164h398l84 -84l-84 -80h-588zM119 682l153 90h398l153 -90l-153 -76h-398zM190 84l82 80h433l153 -164h-586zM696 799v375l82 81l80 -81v-469z" />
<glyph unicode="3" horiz-adv-x="929" d="M41 0l158 164h397l84 -80l-84 -84h-555zM41 1366h555l84 -84l-84 -80h-397zM45 682l154 90h397l154 -90l-154 -76h-397zM623 193v387l161 82v-469l-79 -82zM623 799v375l82 81l79 -81v-469z" />
<glyph unicode="4" d="M82 705v661l162 -164v-403zM119 682l153 90h398l153 -90l-153 -76h-398zM696 164v416l162 82v-662zM696 799v403l162 164v-661z" />
<glyph unicode="5" d="M82 0l158 164h430l84 -80l-84 -84h-588zM82 705v469l82 81l80 -81v-375zM119 682l153 90h398l153 -90l-153 -76h-398zM190 1282l82 84h553l-155 -164h-398zM696 193v387l162 82v-469l-80 -82z" />
<glyph unicode="6" d="M82 193v469l162 -82v-387l-80 -82zM82 705v469l82 81l80 -81v-375zM119 682l153 90h398l153 -90l-153 -76h-398zM190 84l82 80h398l84 -80l-84 -84h-398zM190 1282l82 84h553l-155 -164h-398zM696 193v387l162 82v-469l-80 -82z" />
<glyph unicode="7" horiz-adv-x="942" d="M0 1366h725l-166 -164h-395zM588 164v416l164 82v-662zM588 799v375l164 165v-634z" />
<glyph unicode="8" d="M82 193v469l162 -82v-387l-80 -82zM82 705v469l82 81l80 -81v-375zM119 682l153 90h398l153 -90l-153 -76h-398zM190 84l82 80h398l84 -80l-84 -84h-398zM190 1282l82 84h398l84 -84l-84 -80h-398zM696 193v387l162 82v-469l-80 -82zM696 799v375l82 81l80 -81v-469z" />
<glyph unicode="9" d="M82 705v469l82 81l80 -81v-390zM115 0l157 164h398l84 -80l-84 -84h-555zM119 682l153 90h398l153 -90l-153 -76h-398zM190 1282l82 84h398l84 -84l-84 -80h-398zM696 193v374l162 95v-469l-80 -82zM696 784v390l82 81l80 -81v-469z" />
<glyph unicode=":" horiz-adv-x="260" d="M55 0v295h162v-295h-162zM55 606v281h162v-281h-162z" />
<glyph unicode=";" horiz-adv-x="272" d="M-27 -178l90 473h168l-90 -473h-168zM61 606v281h162v-281h-162z" />
<glyph unicode="&#x3c;" horiz-adv-x="1064" d="M70 625v110l923 473v-123l-776 -407l776 -402v-122z" />
<glyph unicode="=" horiz-adv-x="1064" d="M27 479v135h1009v-135h-1009zM27 778v135h1009v-135h-1009z" />
<glyph unicode="&#x3e;" horiz-adv-x="1062" d="M72 152v124l772 402l-772 405v125l917 -473v-108z" />
<glyph unicode="?" horiz-adv-x="794" d="M41 1282l84 84h397l82 -84l-82 -80h-397zM207 0v295h164v-295h-164zM209 385v360l162 -157v-203h-162zM242 772h280l154 -86l-154 -80h-116zM549 799v375l80 81l84 -81v-469z" />
<glyph unicode="@" horiz-adv-x="1601" d="M123 678q0 148 54.5 280t148.5 226.5t225.5 149.5t279.5 55q174 0 323 -78.5t236 -212t87 -289.5q0 -234 -152 -383q-63 -63 -154.5 -107.5t-158.5 -44.5q-54 0 -80 24.5t-27 76.5q-32 -43 -84.5 -67.5t-109.5 -24.5q-132 0 -215.5 91t-83.5 236q0 180 111 302t274 122 q82 0 135 -30t100 -103l23 123h98l-104 -590q-2 -11 -3.5 -18.5t-2.5 -11t-1 -5.5q0 -45 45 -45q43 0 110.5 41t109.5 94q100 127 100 299q0 221 -167.5 371t-414.5 150q-178 0 -323 -81.5t-227 -225.5t-82 -322q0 -175 84 -318.5t232 -225t329 -81.5q156 0 280 68 q51 29 87.5 57.5t97.5 89.5h94q-67 -85 -106 -123t-95 -73q-151 -97 -354 -97q-201 0 -366 91.5t-259 252t-94 357.5zM541 627q0 -106 58.5 -174t150.5 -68q104 0 171.5 98t67.5 250q0 92 -50 148.5t-132 56.5q-110 0 -188 -91t-78 -220z" />
<glyph unicode="A" d="M82 0v662l162 -82v-416zM82 705v634l162 -165v-375zM109 1366h725l-164 -164h-398zM119 682l153 90h398l153 -90l-153 -76h-398zM696 164v416l162 82v-662zM696 799v375l162 165v-634z" />
<glyph unicode="B" d="M82 27v635l162 -82v-387zM82 705v634l162 -165v-375zM109 0l163 164h398l84 -80l-84 -84h-561zM109 1366h561l84 -84l-84 -80h-398zM119 682l153 90h398l153 -90l-153 -76h-398zM696 193v387l162 82v-469l-80 -82zM696 799v375l82 81l80 -81v-469z" />
<glyph unicode="C" horiz-adv-x="845" d="M82 193v469l162 -95v-374l-80 -82zM82 705v469l82 81l80 -81v-390zM190 84l82 80h398l164 -164h-562zM190 1282l82 84h562l-164 -164h-398z" />
<glyph unicode="D" d="M82 27v635l162 -82v-387zM82 705v634l162 -165v-375zM109 0l163 164h398l84 -80l-84 -84h-561zM109 1366h561l84 -84l-84 -80h-398zM696 193v387l162 82v-469l-80 -82zM696 799v375l82 81l80 -81v-469z" />
<glyph unicode="E" horiz-adv-x="845" d="M82 27v635l162 -82v-387zM82 705v634l162 -165v-375zM109 0l163 164h398l164 -164h-725zM109 1366h725l-164 -164h-398zM119 682l153 90h398l153 -90l-153 -76h-398z" />
<glyph unicode="F" horiz-adv-x="833" d="M82 0v662l162 -82v-416zM82 705v634l162 -165v-375zM109 1366h725l-164 -164h-398zM119 682l153 90h398l153 -90l-153 -76h-398z" />
<glyph unicode="G" d="M82 193v469l162 -82v-387l-80 -82zM82 705v469l82 81l80 -81v-375zM190 84l82 80h398l84 -80l-84 -84h-398zM190 1282l82 84h553l-155 -164h-398zM365 682l153 90h152l153 -90l-153 -76h-152zM696 193v387l162 82v-469l-80 -82z" />
<glyph unicode="H" d="M82 0v662l162 -82v-416zM82 705v661l162 -164v-403zM119 682l153 90h398l153 -90l-153 -76h-398zM696 164v416l162 82v-662zM696 799v403l162 164v-661z" />
<glyph unicode="I" horiz-adv-x="325" d="M82 164v416l162 82v-662zM82 799v403l162 164v-661z" />
<glyph unicode="J" d="M82 27v635l162 -82v-387zM109 0l163 164h398l164 -164h-725zM696 193v387l162 82v-635zM696 799v403l162 164v-661z" />
<glyph unicode="K" d="M82 0v662l162 -82v-416zM82 705v661l162 -164v-403zM119 682l153 90h398l153 -90l-153 -76h-398zM279 805v117l460 444h119v-113l-463 -448h-116zM696 164v416l162 82v-662z" />
<glyph unicode="L" horiz-adv-x="913" d="M82 27v635l162 -82v-387zM82 705v661l162 -164v-403zM109 0l163 164h398l164 -164h-725zM696 193v387l162 82v-635z" />
<glyph unicode="M" horiz-adv-x="1554" d="M82 0v662l162 -82v-416zM82 705v634l162 -165v-375zM109 1366h1339l-166 -164h-397l-107 107l-108 -107h-402zM696 137v451l82 74l80 -74v-451l-80 -137zM696 756v422l82 84l80 -88v-418l-80 -64zM1311 164v416l162 82v-662zM1311 799v375l162 163v-632z" />
<glyph unicode="N" d="M82 0v662l162 -82v-416zM82 705v634l162 -165v-375zM109 1366h725l-164 -164h-398zM696 164v416l162 82v-662zM696 799v375l162 165v-634z" />
<glyph unicode="O" d="M82 193v469l162 -82v-387l-80 -82zM82 705v469l82 81l80 -81v-375zM190 84l82 80h398l84 -80l-84 -84h-398zM190 1282l82 84h398l84 -84l-84 -80h-398zM696 193v387l162 82v-469l-80 -82zM696 799v375l82 81l80 -81v-469z" />
<glyph unicode="P" d="M82 0v662l162 -82v-416zM82 705v634l162 -165v-375zM109 1366h561l84 -84l-84 -80h-398zM119 682l153 90h398l153 -90l-153 -76h-398zM696 799v375l82 81l80 -81v-469z" />
<glyph unicode="Q" horiz-adv-x="944" d="M82 193v469l162 -82v-387l-80 -82zM82 705v469l82 81l80 -81v-375zM190 1282l82 84h398l84 -84l-84 -80h-398zM193 90l79 74h117l168 -164h-285zM440 164h226l196 -187v-221zM696 193v387l162 82v-469l-80 -82zM696 799v375l82 81l80 -81v-469z" />
<glyph unicode="R" horiz-adv-x="944" d="M82 27v635l162 -82v-387zM82 705v634l162 -165v-375zM109 1366h561l84 -84l-84 -80h-398zM119 682l153 90h398l153 -90l-153 -76h-398zM498 580h182l299 -582l-285 192zM696 799v375l82 81l80 -81v-469z" />
<glyph unicode="S" d="M82 0l178 164h410l84 -80l-84 -84h-588zM82 705v469l82 81l80 -81v-375zM119 682l153 90h398l153 -90l-153 -76h-398zM190 1282l82 84h586l-176 -164h-410zM696 193v387l162 82v-469l-80 -82z" />
<glyph unicode="T" horiz-adv-x="780" d="M-12 1366h805l-131 -164h-177l-92 94l-98 -94h-180zM305 90v488l86 88l82 -88v-488l-84 -90zM307 766v401l84 90l82 -90v-401l-82 -80z" />
<glyph unicode="U" d="M82 193v469l162 -82v-387l-80 -82zM82 705v661l162 -158v-409zM190 84l82 80h398l84 -80l-84 -84h-398zM696 193v387l162 82v-469l-80 -82zM696 799v409l162 158v-661z" />
<glyph unicode="V" horiz-adv-x="944" d="M82 680l213 -55l156 -283v-344zM82 705v634l162 -165v-375zM494 0v342l155 283l213 55zM696 799v375l162 165v-634z" />
<glyph unicode="W" horiz-adv-x="1556" d="M82 188v480l162 -103v-377l-80 -82zM82 705v661l164 -164v-418zM193 78l79 86h398l108 -111l109 111h399l84 -82l-82 -82h-1018zM696 193v417l82 64l82 -64v-422l-80 -84zM696 778v451l82 137l82 -137v-451l-82 -73zM1311 784v418l164 164v-661zM1313 188v379l162 101 v-480l-78 -79z" />
<glyph unicode="X" horiz-adv-x="829" d="M41 0v139l270 525h86v-193l-239 -471h-117zM41 1237v129h119l237 -475v-189h-86zM434 471v193h86l266 -529v-135h-116zM434 702v189l240 475h112v-135l-266 -529h-86z" />
<glyph unicode="Y" d="M82 705v661l162 -164v-403zM119 682l153 90h398l153 -90l-153 -76h-398zM391 94v477h166v-477l-86 -94zM696 799v403l162 164v-661z" />
<glyph unicode="Z" horiz-adv-x="802" d="M12 0l281 627l192 37l-292 -664h-181zM43 1366h532l-71 -164h-297zM223 0l80 164h289l164 -164h-533zM391 864l219 502h178l-290 -674z" />
<glyph unicode="[" horiz-adv-x="526" d="M145 -389v1753h361v-129h-205v-1495h205v-129h-361z" />
<glyph unicode="\" horiz-adv-x="1101" d="M41 1366l436 -719l94 164l-335 555h-195zM502 606l366 -606h193l-369 606h-190z" />
<glyph unicode="]" horiz-adv-x="526" d="M20 -260h205v1495h-205v129h361v-1753h-361v129z" />
<glyph unicode="^" horiz-adv-x="1241" d="M94 332l471 1032h107l475 -1032h-119l-412 895l-405 -895h-117z" />
<glyph unicode="_" horiz-adv-x="923" d="M0 -119h924v-157h-924v157z" />
<glyph unicode="`" horiz-adv-x="301" d="M0 961h178l123 -275h-178z" />
<glyph unicode="a" horiz-adv-x="704" d="M61 0v463l123 -57v-291zM61 492v446l123 -117v-262zM82 956h543l-123 -114h-297zM90 477l115 64h297l114 -64l-114 -53h-297zM522 115v291l123 57v-463zM522 559v262l123 117v-446z" />
<glyph unicode="b" horiz-adv-x="704" d="M61 18v445l123 -57v-273zM61 492v446l123 -117v-262zM82 0l123 115h297l63 -56l-63 -59h-420zM82 956h420l63 -59l-63 -55h-297zM90 477l115 64h297l114 -64l-114 -53h-297zM522 133v273l123 57v-330l-61 -55zM522 559v262l62 58l61 -58v-329z" />
<glyph unicode="c" horiz-adv-x="634" d="M61 133v330l123 -66v-264l-61 -55zM61 492v329l62 58l61 -58v-272zM141 59l64 56h297l123 -115h-420zM141 897l64 59h420l-123 -114h-297z" />
<glyph unicode="d" horiz-adv-x="704" d="M61 18v445l123 -57v-273zM61 492v446l123 -117v-262zM82 0l123 115h297l63 -56l-63 -59h-420zM82 956h420l63 -59l-63 -55h-297zM522 133v273l123 57v-330l-61 -55zM522 559v262l62 58l61 -58v-329z" />
<glyph unicode="e" horiz-adv-x="634" d="M61 18v445l123 -57v-273zM61 492v446l123 -117v-262zM82 0l123 115h297l123 -115h-543zM82 956h543l-123 -114h-297zM90 477l115 64h297l114 -64l-114 -53h-297z" />
<glyph unicode="f" horiz-adv-x="624" d="M61 0v463l123 -57v-291zM61 492v446l123 -117v-262zM82 956h543l-123 -114h-297zM90 477l115 64h297l114 -64l-114 -53h-297z" />
<glyph unicode="g" horiz-adv-x="704" d="M61 133v330l123 -57v-273l-61 -55zM61 492v329l62 58l61 -58v-262zM141 59l64 56h297l63 -56l-63 -59h-297zM141 897l64 59h413l-116 -114h-297zM272 477l117 64h113l114 -64l-114 -53h-113zM522 133v273l123 57v-330l-61 -55z" />
<glyph unicode="h" horiz-adv-x="704" d="M61 0v463l123 -57v-291zM61 492v464l123 -114v-283zM90 477l115 64h297l114 -64l-114 -53h-297zM522 115v291l123 57v-463zM522 559v283l123 114v-464z" />
<glyph unicode="i" horiz-adv-x="243" d="M61 115v291l123 57v-463zM61 559v283l123 114v-464z" />
<glyph unicode="j" horiz-adv-x="704" d="M61 18v445l123 -57v-273zM82 0l123 115h297l123 -115h-543zM522 133v273l123 57v-445zM522 559v283l123 114v-464z" />
<glyph unicode="k" horiz-adv-x="704" d="M61 0v463l123 -57v-291zM61 492v464l123 -114v-283zM90 477l115 64h297l114 -64l-114 -53h-297zM209 563v82l346 311h90v-79l-350 -314h-86zM522 115v291l123 57v-463z" />
<glyph unicode="l" horiz-adv-x="686" d="M61 18v445l123 -57v-273zM61 492v464l123 -114v-283zM82 0l123 115h297l123 -115h-543zM522 133v273l123 57v-445z" />
<glyph unicode="m" horiz-adv-x="1165" d="M61 0v463l123 -57v-291zM61 492v446l123 -117v-262zM82 956h1003l-124 -114h-297l-80 73l-82 -73h-299zM522 96v316l62 51l61 -51v-316l-61 -96zM522 528v297l62 58l61 -62v-293l-61 -43zM983 115v291l123 57v-463zM983 559v262l123 115v-444z" />
<glyph unicode="n" horiz-adv-x="704" d="M61 0v463l123 -57v-291zM61 492v446l123 -117v-262zM82 956h543l-123 -114h-297zM522 115v291l123 57v-463zM522 559v262l123 117v-446z" />
<glyph unicode="o" horiz-adv-x="704" d="M61 133v330l123 -57v-273l-61 -55zM61 492v329l62 58l61 -58v-262zM141 59l64 56h297l63 -56l-63 -59h-297zM141 897l64 59h297l63 -59l-63 -55h-297zM522 133v273l123 57v-330l-61 -55zM522 559v262l62 58l61 -58v-329z" />
<glyph unicode="p" horiz-adv-x="704" d="M61 0v463l123 -57v-291zM61 492v446l123 -117v-262zM82 956h420l63 -59l-63 -55h-297zM90 477l115 64h297l114 -64l-114 -53h-297zM522 559v262l62 58l61 -58v-329z" />
<glyph unicode="q" horiz-adv-x="708" d="M61 133v330l123 -57v-273l-61 -55zM61 492v329l62 58l61 -58v-262zM141 897l64 59h297l63 -59l-63 -55h-297zM143 61l62 54h86l127 -115h-213zM330 115h170l147 -131v-154zM522 133v273l123 57v-330l-61 -55zM522 559v262l62 58l61 -58v-329z" />
<glyph unicode="r" horiz-adv-x="708" d="M61 18v445l123 -57v-273zM61 492v446l123 -117v-262zM82 956h420l63 -59l-63 -55h-297zM90 477l115 64h297l114 -64l-114 -53h-297zM373 406h137l223 -408l-213 135zM522 559v262l62 58l61 -58v-329z" />
<glyph unicode="s" horiz-adv-x="704" d="M61 0l134 115h307l63 -56l-63 -59h-441zM61 492v329l62 58l61 -58v-262zM90 477l115 64h297l114 -64l-114 -53h-297zM141 897l64 59h440l-133 -114h-307zM522 133v273l123 57v-330l-61 -55z" />
<glyph unicode="t" horiz-adv-x="583" d="M-10 956h604l-98 -114h-131l-70 65l-74 -65h-135zM229 61v345l64 61l61 -61v-345l-63 -61zM231 537v280l62 64l61 -64v-280l-61 -56z" />
<glyph unicode="u" horiz-adv-x="704" d="M61 133v330l123 -57v-273l-61 -55zM61 492v464l123 -110v-287zM141 59l64 56h297l63 -56l-63 -59h-297zM522 133v273l123 57v-330l-61 -55zM522 559v287l123 110v-464z" />
<glyph unicode="v" horiz-adv-x="708" d="M61 477l160 -41l117 -196v-242zM61 492v446l123 -117v-262zM371 0v240l116 196l160 39zM522 559v262l123 117v-446z" />
<glyph unicode="w" horiz-adv-x="1167" d="M61 131v336l123 -72v-264l-61 -57zM61 492v464l123 -114v-293zM143 55l62 60h297l82 -78l82 78h299l61 -58l-59 -57h-764zM522 133v295l62 43l61 -43v-297l-61 -57zM522 545v315l62 96l61 -96v-315l-61 -53zM983 549v293l123 114v-464zM985 131v266l121 70v-336l-57 -55z " />
<glyph unicode="x" horiz-adv-x="620" d="M31 0v96l202 369h64v-135l-178 -330h-88zM31 866v90h88l178 -331v-133h-64zM326 330v135h63l201 -371v-94h-88zM326 492v133l180 331h84v-94l-201 -370h-63z" />
<glyph unicode="y" horiz-adv-x="704" d="M61 492v464l123 -114v-283zM90 477l115 64h297l114 -64l-114 -53h-297zM293 66v333h125v-333l-66 -66zM522 559v283l123 114v-464z" />
<glyph unicode="z" horiz-adv-x="602" d="M10 0l209 438l146 27l-222 -465h-133zM33 956h397l-51 -114h-223zM168 0l59 115h217l123 -115h-399zM293 606l166 350h133l-219 -471z" />
<glyph unicode="{" horiz-adv-x="647" d="M115 485q75 31 105 74.5t30 124.5v440q0 132 64 183t239 57q-89 -31 -125.5 -79.5t-36.5 -139.5v-443q0 -101 -31.5 -143t-132.5 -74q100 -41 132 -85t32 -142v-428q0 -86 39.5 -139.5t122.5 -79.5q-125 5 -177.5 22t-86.5 64q-39 59 -39 172v418q0 83 -30.5 127.5 t-104.5 70.5z" />
<glyph unicode="|" horiz-adv-x="1024" d="M463 -350v1714h94v-1714h-94z" />
<glyph unicode="}" horiz-adv-x="647" d="M94 -389q83 26 122.5 79.5t39.5 139.5v428q0 98 31.5 142t132.5 85q-101 32 -132.5 74t-31.5 143v443q0 91 -36.5 139.5t-125.5 79.5q175 -6 239 -57t64 -183v-440q0 -82 29.5 -125t105.5 -74q-75 -26 -105 -70.5t-30 -129.5v-418q0 -161 -92 -217q-35 -22 -74.5 -29 t-136.5 -10z" />
<glyph unicode="~" horiz-adv-x="1024" d="M10 1190q74 125 135 177t131 52q43 0 89.5 -16t175.5 -74q94 -43 133.5 -57.5t62.5 -14.5q56 0 106.5 47.5t104.5 149.5l64 -51q-69 -126 -133.5 -183t-137.5 -57q-34 0 -78 15.5t-157 66.5l-96 43q-84 37 -127 37q-56 0 -102 -41t-109 -147z" />
<glyph unicode="&#xa1;" horiz-adv-x="325" d="M82 0v963l162 -123v-676zM82 1071v295h162v-295h-162z" />
<glyph unicode="&#xa2;" horiz-adv-x="882" d="M82 193v469l162 -95v-374l-80 -82zM82 705v469l82 81l80 -81v-390zM193 80l81 84h402l162 -164h-283l-96 109l-97 -109h-90zM197 1280l79 86h95l92 -100l100 100h277l-162 -164h-404zM375 -27l84 82l84 -84v-131l-82 -108l-86 104v137zM383 1397v135l80 90l86 -96v-129 l-88 -90z" />
<glyph unicode="&#xa3;" horiz-adv-x="1013" d="M-41 680l84 92h143l93 -92l-89 -74h-151zM217 57v514l88 76l80 -76v-378zM221 786v388l84 86l82 -86v-392l-86 -75zM223 0l189 164h395l166 -164h-750zM330 680l88 92h225l82 -92l-82 -74h-229zM330 1282l82 84h561l-166 -164h-395z" />
<glyph unicode="&#xa4;" horiz-adv-x="1064" d="M18 1126l88 91l117 -117q138 110 312 110q87 0 157.5 -24t147.5 -82l112 113l86 -91l-112 -110q61 -76 86.5 -146.5t25.5 -164.5q0 -90 -24 -159t-82 -145l112 -112l-86 -88l-114 112q-75 -60 -148 -86t-164 -26t-162 25.5t-149 86.5l-115 -112l-86 88l113 112 q-58 79 -81 147t-23 157q0 94 24 163t82 144zM168 705q0 -152 107.5 -259.5t259.5 -107.5t260 107.5t108 259.5t-108 259t-260 107t-259.5 -107t-107.5 -259z" />
<glyph unicode="&#xa5;" horiz-adv-x="964" d="M41 481l47 62h264v-115h-270zM43 295l37 59h272v-110h-274zM86 705v661l162 -164v-403zM121 682l153 90h398l153 -90l-153 -76h-398zM395 94v477h166v-477l-88 -94zM616 244v114h269l39 -59l-39 -55h-269zM616 430v113h275l33 -64l-39 -49h-269zM700 799v403l162 164 v-661z" />
<glyph unicode="&#xa6;" horiz-adv-x="454" d="M174 0v614h107v-614h-107zM174 922v614h107v-614h-107z" />
<glyph unicode="&#xa7;" horiz-adv-x="929" d="M82 53l84 80l84 -82v-282l-84 -82l-84 82v284zM82 285v374l84 82l84 -82v-376l-84 -82zM193 164l98 96h350l96 -96l-67 -66h-410zM193 -344l83 90h377l84 -90l-82 -72h-381zM193 776l69 76h410l65 -76l-92 -90h-354zM193 1280l81 86h381l82 -86l-84 -78h-379zM684 285 v374l78 82l86 -79v-377l-84 -82zM684 889v287l78 81l86 -79v-289l-84 -82z" />
<glyph unicode="&#xa8;" horiz-adv-x="466" d="M0 684v248h164v-248h-164zM303 684v248h164v-248h-164z" />
<glyph unicode="&#xa9;" horiz-adv-x="1605" d="M94 682q0 144 56 275t151 225.5t226.5 150.5t275.5 56t275 -56t225 -150.5t150 -225.5t56 -275t-56 -275t-151 -226t-226 -151t-275 -55q-191 0 -354 94.5t-258 257.5t-95 355zM172 682q0 -129 49.5 -246.5t134 -202.5t201 -135.5t244.5 -50.5q127 0 243.5 50.5 t201 135.5t134.5 202.5t50 246.5t-49.5 246t-134 202t-201 135t-244.5 50t-244.5 -50t-201 -135t-134 -202t-49.5 -246zM414 686q0 191 111.5 309.5t291.5 118.5q145 0 247 -81t114 -204h-91q-20 95 -92.5 150t-179.5 55q-138 0 -222.5 -95.5t-84.5 -252.5t83.5 -251.5 t221.5 -94.5q120 0 195 70t90 196h92q-12 -156 -115.5 -251t-261.5 -95q-178 0 -288.5 117.5t-110.5 308.5z" />
<glyph unicode="&#xaa;" horiz-adv-x="708" d="M61 598v86h584v-86h-584zM94 940q0 153 205 174l80 8q54 6 73 20t19 46q0 86 -119 86q-66 0 -96 -25t-35 -84h-102q0 94 62.5 145.5t176.5 51.5q116 0 168 -44t52 -142v-7v-129q0 -24 -1.5 -52.5t-1.5 -33.5q0 -4 -1 -13t-1 -13q0 -31 6 -41t25 -10q12 0 31 8v-82 q-40 -15 -72 -15q-37 0 -57 16.5t-29 53.5q-76 -76 -196 -76q-86 0 -136.5 43t-50.5 115zM203 948q0 -38 27.5 -61t74.5 -23q77 0 122.5 37t45.5 100v68q-28 -12 -63 -18l-54 -9l-59 -8q-94 -14 -94 -86z" />
<glyph unicode="&#xab;" horiz-adv-x="782" d="M41 420h176l193 -420h-179zM41 465l192 422h181l-197 -422h-176zM356 420h176l191 -420h-178zM356 465l191 422h180l-195 -422h-176z" />
<glyph unicode="&#xac;" horiz-adv-x="1024" d="M23 451v88h978v-539h-90v451h-888z" />
<glyph unicode="&#xad;" horiz-adv-x="651" d="M41 410l111 163h456l-108 -163h-459z" />
<glyph unicode="&#xae;" horiz-adv-x="1024" d="M68 1139q0 185 130 314.5t314 129.5q183 0 312.5 -130t129.5 -314t-129.5 -313.5t-312.5 -129.5q-185 0 -314.5 129.5t-129.5 313.5zM135 1139q0 -155 110 -265t267 -110q155 0 265 110t110 265t-110 266t-265 111q-156 0 -266.5 -110.5t-110.5 -266.5zM319 913v451h220 q75 0 115 -31.5t40 -91.5q0 -78 -73 -111q31 -9 44.5 -30.5t18.5 -67.5l4 -39q5 -39 9.5 -53t19.5 -27l-82 2q-9 16 -12 56q-3 88 -23 111.5t-90 23.5h-123v-193h-68zM387 1159h117q68 0 95.5 17t27.5 59q0 40 -25 57t-82 17h-133v-150z" />
<glyph unicode="&#xaf;" horiz-adv-x="567" d="M0 721l111 164h456l-110 -164h-457z" />
<glyph unicode="&#xb0;" horiz-adv-x="829" d="M102 1079q0 129 91.5 219.5t222.5 90.5q129 0 219 -90t90 -218q0 -132 -90 -222.5t-221 -90.5t-221.5 90.5t-90.5 220.5zM209 1077q0 -88 61 -150.5t146 -62.5t143.5 62t58.5 151q0 91 -58.5 153t-143.5 62q-86 0 -146.5 -63t-60.5 -152z" />
<glyph unicode="&#xb1;" horiz-adv-x="1064" d="M27 86v135h1009v-135h-1009zM27 741v136h436v430h137v-430h436v-136h-436v-430h-135v430h-438z" />
<glyph unicode="&#xb2;" horiz-adv-x="544" d="M33 610v64q0 24 1.5 44.5t7.5 40t9.5 33t16 31.5t18 26.5t23.5 27.5t24.5 25.5t31 29.5t32.5 31q25 24 61.5 56.5t54.5 49t40.5 42t32.5 47t17 52t7 68.5q0 61 -30.5 111t-88.5 57q-44 5 -74 -8.5t-46 -43t-23 -63t-9 -78.5h-98q-5 115 56.5 193t181.5 78 q105 0 170 -66.5t65 -177.5q0 -48 -17 -95.5t-39.5 -84t-63 -80t-70.5 -70.5t-78.5 -69.5t-71.5 -63.5q-17 -15 -35.5 -47.5t-19.5 -67.5h395v-92h-481z" />
<glyph unicode="&#xb3;" horiz-adv-x="544" d="M25 850h92q2 -86 32.5 -130t116.5 -44q148 0 148 180q0 27 -2 46t-11.5 46t-27 44t-51 29.5t-80.5 12.5h-60l-2 92h37q78 0 127 37.5t49 122.5q0 160 -131 160q-36 0 -61 -13.5t-38 -39.5t-19 -52t-9 -61h-88q-2 103 52 174.5t161 71.5q114 0 174 -66t60 -172 q0 -19 -4.5 -40.5t-17.5 -54t-45 -62.5t-79 -48q50 -10 85 -34.5t53.5 -58t26 -67t7.5 -71.5q0 -71 -22.5 -122.5t-52 -76.5t-70 -39.5t-62.5 -17t-43 -2.5h-2q-12 0 -23 0.5t-37.5 5t-48.5 13t-48.5 27.5t-44.5 45t-30 69t-11 96z" />
<glyph unicode="&#xb4;" horiz-adv-x="301" d="M0 688l123 273h178l-125 -273h-176z" />
<glyph unicode="&#xb5;" horiz-adv-x="1024" d="M92 -344v1333h154v-557q0 -106 17 -159t67 -103q73 -70 172 -70q120 0 194 97t74 252v540h154v-989h-152v168q-51 -105 -113.5 -150t-156.5 -45q-88 0 -146.5 34t-109.5 116v-467h-154z" />
<glyph unicode="&#xb6;" horiz-adv-x="1040" d="M106 995q0 177 97 273t276 96h420v-66h-74v-1507h-84v1507h-198v-1505h-86v844q-10 -2 -31 -2q-139 0 -229.5 101.5t-90.5 258.5z" />
<glyph unicode="&#xb7;" horiz-adv-x="245" d="M41 541v293h164v-293h-164z" />
<glyph unicode="&#xb9;" horiz-adv-x="544" d="M117 1298v58q110 3 163.5 37.5t63.5 130.5h86v-914h-102v703q-37 -6 -101 -10q-67 -7 -110 -5z" />
<glyph unicode="&#xba;" horiz-adv-x="708" d="M61 598v86h584v-86h-584zM76 1073q0 131 76 210t204 79q126 0 200.5 -79t74.5 -212q0 -135 -73 -212t-202 -77t-204.5 78.5t-75.5 212.5zM184 1073q0 -97 45 -151t127 -54q78 0 123 55t45 150q0 92 -46 146.5t-124 54.5t-124 -54.5t-46 -146.5z" />
<glyph unicode="&#xbb;" horiz-adv-x="782" d="M41 887l197 -422h176l-193 422h-180zM45 0h178l191 420h-176zM356 887l195 -422h176l-190 422h-181zM358 0h181l188 420h-176z" />
<glyph unicode="&#xbc;" horiz-adv-x="1363" d="M39 1298v58q110 3 163.5 37.5t63.5 130.5h86v-914h-102v703q-37 -6 -100 -10q-68 -7 -111 -5zM188 0l926 1524h103l-922 -1524h-107zM817 236v90l336 587h96v-602h78v-75h-78v-236h-96v236h-336zM895 311h258v459h-4z" />
<glyph unicode="&#xbd;" horiz-adv-x="1363" d="M4 1298v58q110 3 163.5 37.5t63.5 130.5h86v-914h-102v703q-37 -6 -100 -10q-68 -7 -111 -5zM154 0l925 1524h103l-922 -1524h-106zM879 0v63q0 24 1.5 44.5t7.5 40.5t9.5 32.5t16 31t17 26.5t23.5 28t24.5 25.5t31 29.5t32.5 31q26 25 72.5 66t63 58.5t39.5 49 t30.5 64.5t7.5 78q0 61 -30 111t-88 57q-44 5 -74 -8.5t-46 -43t-23 -63t-9 -78.5h-98q-5 115 56 192.5t181 77.5q105 0 170.5 -66t65.5 -177q0 -48 -17 -95.5t-39.5 -84t-63 -80t-70.5 -70.5t-78.5 -69.5t-71.5 -63.5q-17 -15 -35.5 -47.5t-19.5 -67.5h395v-92h-481z" />
<glyph unicode="&#xbe;" horiz-adv-x="1363" d="M33 848h92q2 -86 32.5 -130t116.5 -44q148 0 148 180q0 27 -2 46t-11.5 46t-27 44t-51 29.5t-80.5 12.5h-60l-2 92h37q78 0 127 37.5t49 122.5q0 160 -131 160q-36 0 -61 -13.5t-38 -39.5t-19 -52t-9 -61h-88q-2 103 52 174.5t161 71.5q114 0 174 -66t60 -172 q0 -19 -4.5 -40.5t-17.5 -54t-45 -62.5t-79 -48q50 -10 85 -34.5t53.5 -58t26 -67t7.5 -71.5q0 -71 -22.5 -122.5t-52 -76.5t-69.5 -39.5t-62 -17t-43 -2.5h-2q-12 0 -23 0.5t-38 5t-48.5 13t-48.5 27.5t-45 45t-30 69t-11 96zM254 0l926 1524h102l-922 -1524h-106zM821 236 v90l336 587h96v-602h78v-75h-78v-236h-96v236h-336zM899 311h258v459h-4z" />
<glyph unicode="&#xbf;" horiz-adv-x="794" d="M82 193v469l162 -95v-374l-80 -82zM119 680l153 78h115l164 -164h-281zM190 84l82 80h398l84 -80l-84 -84h-398zM422 778v203h164v-360zM422 1071v295h164v-295h-164z" />
<glyph unicode="&#xc0;" d="M82 0v662l162 -82v-416zM82 705v634l162 -165v-375zM109 1366h725l-164 -164h-398zM119 682l153 90h398l153 -90l-153 -76h-398zM270 1767h179l122 -274h-178zM696 164v416l162 82v-662zM696 799v375l162 165v-634z" />
<glyph unicode="&#xc1;" d="M82 0v662l162 -82v-416zM82 705v634l162 -165v-375zM109 1366h725l-164 -164h-398zM119 682l153 90h398l153 -90l-153 -76h-398zM365 1501l122 273h179l-125 -273h-176zM696 164v416l162 82v-662zM696 799v375l162 165v-634z" />
<glyph unicode="&#xc2;" d="M82 0v662l162 -82v-416zM82 705v634l162 -165v-375zM102 1483l297 303l47 -191l-118 -112h-226zM109 1366h725l-164 -164h-398zM119 682l153 90h398l153 -90l-153 -76h-398zM481 1602l51 182l314 -301h-242zM696 164v416l162 82v-662zM696 799v375l162 165v-634z" />
<glyph unicode="&#xc3;" d="M82 0v662l162 -82v-416zM82 705v634l162 -165v-375zM109 1366h725l-164 -164h-398zM119 682l153 90h398l153 -90l-153 -76h-398zM168 1550l65 219l111 -204l-18 -60zM276 1790l275 -86l104 -199l-266 82zM586 1731l18 59l160 -43l-70 -219zM696 164v416l162 82v-662z M696 799v375l162 165v-634z" />
<glyph unicode="&#xc4;" d="M82 0v662l162 -82v-416zM82 705v634l162 -165v-375zM109 1366h725l-164 -164h-398zM119 682l153 90h398l153 -90l-153 -76h-398zM238 1524v248h163v-248h-163zM541 1524v248h164v-248h-164zM696 164v416l162 82v-662zM696 799v375l162 165v-634z" />
<glyph unicode="&#xc5;" d="M82 0l162 164v416l-162 82v-662zM82 705l162 94v375l-162 165v-634zM109 1366l163 -164h398l164 164h-725zM119 682l153 -76h398l153 76l-153 90h-398zM696 164l162 -164v662l-162 -82v-416zM696 799l162 -94v634l-162 -165v-375z" />
<glyph unicode="&#xc6;" horiz-adv-x="1503" d="M82 0v664l164 -86v-416zM82 705v634l166 -165v-373zM113 1366h1349l-164 -164h-407l-105 105l-112 -105h-400zM119 684l155 88h400l82 -82l-84 -84h-400zM698 803v375l84 84l80 -84v-377l-80 -84zM700 12v568l82 82l80 -82v-404zM735 0l166 164h399l162 -164h-727z M817 690l80 82h387l152 -88l-158 -78h-387z" />
<glyph unicode="&#xc7;" horiz-adv-x="845" d="M82 193v469l162 -95v-374l-80 -82zM82 705v469l82 81l80 -81v-390zM190 84l82 80h398l164 -164h-562zM190 1282l82 84h562l-164 -164h-398zM219 -311l178 252h172l-176 -252h-174z" />
<glyph unicode="&#xc8;" horiz-adv-x="845" d="M82 27v635l162 -82v-387zM82 705v634l162 -165v-375zM109 0l163 164h398l164 -164h-725zM109 1366h725l-164 -164h-398zM119 682l153 90h398l153 -90l-153 -76h-398zM270 1780h179l122 -275h-178z" />
<glyph unicode="&#xc9;" horiz-adv-x="845" d="M82 27v635l162 -82v-387zM82 705v634l162 -165v-375zM109 0l163 164h398l164 -164h-725zM109 1366h725l-164 -164h-398zM119 682l153 90h398l153 -90l-153 -76h-398zM340 1495l123 272h178l-125 -272h-176z" />
<glyph unicode="&#xca;" horiz-adv-x="845" d="M82 27v635l162 -82v-387zM82 705v634l162 -165v-375zM84 1483l297 303l47 -191l-119 -112h-225zM109 0l163 164h398l164 -164h-725zM109 1366h725l-164 -164h-398zM119 682l153 90h398l153 -90l-153 -76h-398zM463 1602l51 182l313 -301h-241z" />
<glyph unicode="&#xcb;" horiz-adv-x="845" d="M82 27v635l162 -82v-387zM82 705v634l162 -165v-375zM109 0l163 164h398l164 -164h-725zM109 1366h725l-164 -164h-398zM119 682l153 90h398l153 -90l-153 -76h-398zM225 1503v248h164v-248h-164zM528 1503v248h164v-248h-164z" />
<glyph unicode="&#xcc;" horiz-adv-x="325" d="M82 164v416l162 82v-662zM82 799v403l162 164v-661zM82 1788h178l123 -275h-178z" />
<glyph unicode="&#xcd;" horiz-adv-x="325" d="M82 164v416l162 82v-662zM82 799v403l162 164v-661zM90 1483l123 272h178l-125 -272h-176z" />
<glyph unicode="&#xce;" horiz-adv-x="325" d="M82 164v416l162 82v-662zM82 799v403l162 164v-661zM82 1483l297 303l47 -191l-119 -112h-225zM461 1602l51 182l313 -301h-241z" />
<glyph unicode="&#xcf;" horiz-adv-x="325" d="M82 164v416l162 82v-662zM82 799v403l162 164v-661zM82 1491v248h164v-248h-164zM385 1491v248h164v-248h-164z" />
<glyph unicode="&#xd1;" d="M82 0v662l162 -82v-416zM82 705v634l162 -165v-375zM109 1366h725l-164 -164h-398zM168 1526l65 219l111 -205l-18 -59zM276 1765l275 -86l104 -198l-266 82zM586 1706l18 59l160 -43l-70 -219zM696 164v416l162 82v-662zM696 799v375l162 165v-634z" />
<glyph unicode="&#xd2;" d="M82 193v469l162 -82v-387l-80 -82zM82 705v469l82 81l80 -81v-375zM190 84l82 80h398l84 -80l-84 -84h-398zM190 1282l82 84h398l84 -84l-84 -80h-398zM270 1755h179l122 -274h-178zM696 193v387l162 82v-469l-80 -82zM696 799v375l82 81l80 -81v-469z" />
<glyph unicode="&#xd3;" d="M82 193v469l162 -82v-387l-80 -82zM82 705v469l82 81l80 -81v-375zM190 84l82 80h398l84 -80l-84 -84h-398zM190 1282l82 84h398l84 -84l-84 -80h-398zM373 1483l123 272h178l-125 -272h-176zM696 193v387l162 82v-469l-80 -82zM696 799v375l82 81l80 -81v-469z" />
<glyph unicode="&#xd4;" d="M82 193v469l162 -82v-387l-80 -82zM82 705v469l82 81l80 -81v-375zM90 1489l297 303l47 -190l-119 -113h-225zM190 84l82 80h398l84 -80l-84 -84h-398zM190 1282l82 84h398l84 -84l-84 -80h-398zM469 1608l51 182l314 -301h-242zM696 193v387l162 82v-469l-80 -82z M696 799v375l82 81l80 -81v-469z" />
<glyph unicode="&#xd5;" d="M82 193v469l162 -82v-387l-80 -82zM82 705v469l82 81l80 -81v-375zM160 1526l65 219l111 -205l-19 -59zM190 84l82 80h398l84 -80l-84 -84h-398zM190 1282l82 84h398l84 -84l-84 -80h-398zM268 1765l275 -86l104 -198l-266 82zM578 1706l18 59l160 -43l-70 -219zM696 193 v387l162 82v-469l-80 -82zM696 799v375l82 81l80 -81v-469z" />
<glyph unicode="&#xd6;" d="M82 193v469l162 -82v-387l-80 -82zM82 705v469l82 81l80 -81v-375zM190 84l82 80h398l84 -80l-84 -84h-398zM190 1282l82 84h398l84 -84l-84 -80h-398zM225 1485v248h164v-248h-164zM528 1485v248h164v-248h-164zM696 193v387l162 82v-469l-80 -82zM696 799v375l82 81 l80 -81v-469z" />
<glyph unicode="&#xd7;" horiz-adv-x="909" d="M43 154l338 338l-338 337l76 74l336 -338l338 338l75 -72l-340 -339l340 -340l-75 -74l-338 340l-336 -336z" />
<glyph unicode="&#xd9;" d="M82 193v469l162 -82v-387l-80 -82zM82 705v661l162 -158v-409zM190 84l82 80h398l84 -80l-84 -84h-398zM276 1722h179l123 -274h-179zM696 193v387l162 82v-469l-80 -82zM696 799v409l162 158v-661z" />
<glyph unicode="&#xda;" d="M82 193v469l162 -82v-387l-80 -82zM82 705v661l162 -158v-409zM190 84l82 80h398l84 -80l-84 -84h-398zM346 1444l123 272h178l-125 -272h-176zM696 193v387l162 82v-469l-80 -82zM696 799v409l162 158v-661z" />
<glyph unicode="&#xdb;" d="M82 193v469l162 -82v-387l-80 -82zM82 705v661l162 -158v-409zM90 1464l297 303l47 -190l-119 -113h-225zM190 84l82 80h398l84 -80l-84 -84h-398zM469 1583l51 182l314 -301h-242zM696 193v387l162 82v-469l-80 -82zM696 799v409l162 158v-661z" />
<glyph unicode="&#xdc;" d="M82 193v469l162 -82v-387l-80 -82zM82 705v661l162 -158v-409zM190 84l82 80h398l84 -80l-84 -84h-398zM244 1473v247h164v-247h-164zM547 1473v247h164v-247h-164zM696 193v387l162 82v-469l-80 -82zM696 799v409l162 158v-661z" />
<glyph unicode="&#xdd;" d="M82 705v661l162 -164v-403zM119 682l153 90h398l153 -90l-153 -76h-398zM358 1425l123 273h178l-124 -273h-177zM391 94v477h166v-477l-86 -94zM696 799v403l162 164v-661z" />
<glyph unicode="&#xdf;" horiz-adv-x="1060" d="M121 0v891q0 158 11.5 224.5t49.5 121.5q50 71 134.5 109t193.5 38q175 0 278 -90.5t103 -244.5q0 -105 -53 -181.5t-142 -99.5q124 -23 192 -115t68 -237q0 -195 -125.5 -317t-326.5 -122q-24 0 -74 9v131q47 -6 66 -6q138 0 217.5 80.5t79.5 218.5q0 146 -81 212 t-261 66h-21v129h23q272 0 272 221q0 95 -59.5 153t-159.5 58q-65 0 -114 -23t-73 -63q-23 -41 -29.5 -85.5t-6.5 -159.5v-918h-162z" />
<glyph unicode="&#xe0;" horiz-adv-x="704" d="M61 0v463l123 -57v-291zM61 492v446l123 -117v-262zM82 956h543l-123 -114h-297zM90 477l115 64h297l114 -64l-114 -53h-297zM147 1325h179l123 -274h-179zM522 115v291l123 57v-463zM522 559v262l123 117v-446z" />
<glyph unicode="&#xe1;" horiz-adv-x="704" d="M61 0v463l123 -57v-291zM61 492v446l123 -117v-262zM82 956h543l-123 -114h-297zM90 477l115 64h297l114 -64l-114 -53h-297zM231 1098l123 272h178l-124 -272h-177zM522 115v291l123 57v-463zM522 559v262l123 117v-446z" />
<glyph unicode="&#xe2;" horiz-adv-x="704" d="M61 0v463l123 -57v-291zM61 492v446l123 -117v-262zM61 1079l297 303l48 -190l-119 -113h-226zM82 956h543l-123 -114h-297zM90 477l115 64h297l114 -64l-114 -53h-297zM440 1198l52 182l313 -301h-242zM522 115v291l123 57v-463zM522 559v262l123 117v-446z" />
<glyph unicode="&#xe3;" horiz-adv-x="704" d="M61 0v463l123 -57v-291zM61 492v446l123 -117v-262zM61 1116l66 219l111 -205l-19 -59zM82 956h543l-123 -114h-297zM90 477l115 64h297l114 -64l-114 -53h-297zM170 1356l274 -86l105 -199l-266 82zM479 1296l19 60l159 -43l-69 -219zM522 115v291l123 57v-463zM522 559 v262l123 117v-446z" />
<glyph unicode="&#xe4;" horiz-adv-x="704" d="M61 0v463l123 -57v-291zM61 492v446l123 -117v-262zM82 956h543l-123 -114h-297zM90 477l115 64h297l114 -64l-114 -53h-297zM115 1100v248h164v-248h-164zM418 1100v248h164v-248h-164zM522 115v291l123 57v-463zM522 559v262l123 117v-446z" />
<glyph unicode="&#xe5;" horiz-adv-x="704" d="M61 0l123 115v291l-123 57v-463zM61 492l123 67v262l-123 117v-446zM82 956l123 -114h297l123 114h-543zM90 477l115 -53h297l114 53l-114 64h-297zM522 115l123 -115v463l-123 -57v-291zM522 559l123 -67v446l-123 -117v-262z" />
<glyph unicode="&#xe6;" horiz-adv-x="1896" />
<glyph unicode="&#xe7;" horiz-adv-x="634" d="M61 133v330l123 -66v-264l-61 -55zM61 492v329l62 58l61 -58v-272zM109 -326l178 252h172l-176 -252h-174zM141 59l64 56h297l123 -115h-420zM141 897l64 59h420l-123 -114h-297z" />
<glyph unicode="&#xe8;" horiz-adv-x="634" d="M61 18v445l123 -57v-273zM61 492v446l123 -117v-262zM82 0l123 115h297l123 -115h-543zM82 956h543l-123 -114h-297zM90 477l115 64h297l114 -64l-114 -53h-297zM123 1339h178l123 -274h-178z" />
<glyph unicode="&#xe9;" horiz-adv-x="634" d="M61 18v445l123 -57v-273zM61 492v446l123 -117v-262zM82 0l123 115h297l123 -115h-543zM82 956h543l-123 -114h-297zM90 477l115 64h297l114 -64l-114 -53h-297zM231 1092l123 272h178l-124 -272h-177z" />
<glyph unicode="&#xea;" horiz-adv-x="634" d="M61 18v445l123 -57v-273zM61 492v446l123 -117v-262zM61 1073l297 303l48 -190l-119 -113h-226zM82 0l123 115h297l123 -115h-543zM82 956h543l-123 -114h-297zM90 477l115 64h297l114 -64l-114 -53h-297zM440 1192l52 182l313 -301h-242z" />
<glyph unicode="&#xeb;" horiz-adv-x="634" d="M61 18v445l123 -57v-273zM61 492v446l123 -117v-262zM82 0l123 115h297l123 -115h-543zM82 956h543l-123 -114h-297zM90 477l115 64h297l114 -64l-114 -53h-297zM96 1075v248h164v-248h-164zM399 1075v248h164v-248h-164z" />
<glyph unicode="&#xec;" horiz-adv-x="243" d="M61 115v291l123 57v-463zM61 559v283l123 114v-464zM61 1319h179l122 -275h-178z" />
<glyph unicode="&#xed;" horiz-adv-x="243" d="M61 115v291l123 57v-463zM61 559v283l123 114v-464zM61 1059l123 272h178l-124 -272h-177z" />
<glyph unicode="&#xee;" horiz-adv-x="243" d="M61 115v291l123 57v-463zM61 559v283l123 114v-464zM61 1079l297 303l48 -190l-119 -113h-226zM440 1198l52 182l313 -301h-242z" />
<glyph unicode="&#xef;" horiz-adv-x="243" d="M61 115v291l123 57v-463zM61 559v283l123 114v-464zM61 1069v248h164v-248h-164zM365 1069v248h163v-248h-163z" />
<glyph unicode="&#xf1;" horiz-adv-x="704" d="M61 0v463l123 -57v-291zM61 492v446l123 -117v-262zM63 1122l66 219l111 -204l-19 -60zM82 956h543l-123 -114h-297zM172 1362l274 -86l105 -199l-266 82zM481 1303l19 59l159 -43l-69 -219zM522 115v291l123 57v-463zM522 559v262l123 117v-446z" />
<glyph unicode="&#xf2;" horiz-adv-x="704" d="M61 133v330l123 -57v-273l-61 -55zM61 492v329l62 58l61 -58v-262zM141 59l64 56h297l63 -56l-63 -59h-297zM141 897l64 59h297l63 -59l-63 -55h-297zM147 1325h179l123 -274h-179zM522 133v273l123 57v-330l-61 -55zM522 559v262l62 58l61 -58v-329z" />
<glyph unicode="&#xf3;" horiz-adv-x="704" d="M61 133v330l123 -57v-273l-61 -55zM61 492v329l62 58l61 -58v-262zM141 59l64 56h297l63 -56l-63 -59h-297zM141 897l64 59h297l63 -59l-63 -55h-297zM238 1067l122 272h179l-125 -272h-176zM522 133v273l123 57v-330l-61 -55zM522 559v262l62 58l61 -58v-329z" />
<glyph unicode="&#xf4;" horiz-adv-x="704" d="M61 133v330l123 -57v-273l-61 -55zM61 492v329l62 58l61 -58v-262zM61 1061l297 303l48 -190l-119 -113h-226zM141 59l64 56h297l63 -56l-63 -59h-297zM141 897l64 59h297l63 -59l-63 -55h-297zM440 1180l52 182l313 -301h-242zM522 133v273l123 57v-330l-61 -55z M522 559v262l62 58l61 -58v-329z" />
<glyph unicode="&#xf5;" horiz-adv-x="704" d="M61 133v330l123 -57v-273l-61 -55zM61 492v329l62 58l61 -58v-262zM61 1090l66 219l111 -205l-19 -60zM141 59l64 56h297l63 -56l-63 -59h-297zM141 897l64 59h297l63 -59l-63 -55h-297zM170 1329l274 -86l105 -199l-266 82zM479 1270l19 59l159 -43l-69 -219zM522 133 v273l123 57v-330l-61 -55zM522 559v262l62 58l61 -58v-329z" />
<glyph unicode="&#xf6;" horiz-adv-x="704" d="M61 133v330l123 -57v-273l-61 -55zM61 492v329l62 58l61 -58v-262zM109 1063v248h163v-248h-163zM141 59l64 56h297l63 -56l-63 -59h-297zM141 897l64 59h297l63 -59l-63 -55h-297zM412 1063v248h163v-248h-163zM522 133v273l123 57v-330l-61 -55zM522 559v262l62 58 l61 -58v-329z" />
<glyph unicode="&#xf7;" horiz-adv-x="1064" d="M27 629v135h1009v-135h-1009zM408 375q0 51 35.5 87t86.5 36q52 0 88.5 -36t36.5 -87q0 -53 -36.5 -89t-88.5 -36q-51 0 -86.5 36.5t-35.5 88.5zM408 1016q0 51 35.5 88t86.5 37q52 0 88.5 -37t36.5 -88t-36.5 -87t-88.5 -36q-51 0 -86.5 36t-35.5 87z" />
<glyph unicode="&#xf8;" horiz-adv-x="1896" />
<glyph unicode="&#xf9;" horiz-adv-x="704" d="M61 133v330l123 -57v-273l-61 -55zM61 492v464l123 -110v-287zM129 1307h178l123 -275h-178zM141 59l64 56h297l63 -56l-63 -59h-297zM522 133v273l123 57v-330l-61 -55zM522 559v287l123 110v-464z" />
<glyph unicode="&#xfa;" horiz-adv-x="704" d="M61 133v330l123 -57v-273l-61 -55zM61 492v464l123 -110v-287zM141 59l64 56h297l63 -56l-63 -59h-297zM231 1022l123 272h178l-124 -272h-177zM522 133v273l123 57v-330l-61 -55zM522 559v287l123 110v-464z" />
<glyph unicode="&#xfb;" horiz-adv-x="704" d="M61 133v330l123 -57v-273l-61 -55zM61 492v464l123 -110v-287zM61 1079l297 303l48 -190l-119 -113h-226zM141 59l64 56h297l63 -56l-63 -59h-297zM440 1198l52 182l313 -301h-242zM522 133v273l123 57v-330l-61 -55zM522 559v287l123 110v-464z" />
<glyph unicode="&#xfc;" horiz-adv-x="704" d="M61 133v330l123 -57v-273l-61 -55zM61 492v464l123 -110v-287zM109 1042v248h163v-248h-163zM141 59l64 56h297l63 -56l-63 -59h-297zM412 1042v248h163v-248h-163zM522 133v273l123 57v-330l-61 -55zM522 559v287l123 110v-464z" />
<glyph unicode="&#xfd;" horiz-adv-x="704" d="M61 492v464l123 -114v-283zM90 477l115 64h297l114 -64l-114 -53h-297zM244 1008l123 272h178l-125 -272h-176zM293 66v333h125v-333l-66 -66zM522 559v283l123 114v-464z" />
<glyph unicode="&#xff;" horiz-adv-x="704" d="M61 492v464l123 -114v-283zM90 477l115 64h297l114 -64l-114 -53h-297zM123 1024v248h164v-248h-164zM293 66v333h125v-333l-66 -66zM426 1024v248h164v-248h-164zM522 559v283l123 114v-464z" />
<glyph unicode="&#x152;" horiz-adv-x="1509" d="M82 164v506l166 -88v-418l-82 -74zM82 709v473l84 75l82 -77v-373zM190 68l103 96h377l112 -119l117 119h406l161 -164h-1196zM193 1288l86 78h1189l-165 -164h-416l-99 111l-114 -111h-398zM696 176v410l88 84l76 -86v-410l-78 -82zM698 803v375l84 84l80 -84v-377 l-80 -84zM817 690l80 82h387l152 -88l-158 -78h-387z" />
<glyph unicode="&#x153;" horiz-adv-x="1896" />
<glyph unicode="&#x178;" d="M82 705v661l162 -164v-403zM119 682l153 90h398l153 -90l-153 -76h-398zM244 1421v248h164v-248h-164zM391 94v477h166v-477l-86 -94zM547 1421v248h164v-248h-164zM696 799v403l162 164v-661z" />
<glyph unicode="&#x2c6;" horiz-adv-x="743" d="M0 682l297 303l47 -190l-119 -113h-225zM379 801l51 182l313 -301h-241z" />
<glyph unicode="&#x2dc;" horiz-adv-x="595" d="M0 731l66 219l110 -205l-18 -59zM109 971l274 -86l104 -199l-266 82zM418 911l18 60l160 -43l-70 -219z" />
<glyph unicode="&#x2000;" horiz-adv-x="896" />
<glyph unicode="&#x2001;" horiz-adv-x="1792" />
<glyph unicode="&#x2002;" horiz-adv-x="896" />
<glyph unicode="&#x2003;" horiz-adv-x="1792" />
<glyph unicode="&#x2004;" horiz-adv-x="597" />
<glyph unicode="&#x2005;" horiz-adv-x="448" />
<glyph unicode="&#x2006;" horiz-adv-x="298" />
<glyph unicode="&#x2007;" horiz-adv-x="298" />
<glyph unicode="&#x2008;" horiz-adv-x="224" />
<glyph unicode="&#x2009;" horiz-adv-x="358" />
<glyph unicode="&#x200a;" horiz-adv-x="99" />
<glyph unicode="&#x2010;" horiz-adv-x="651" d="M41 410l111 163h456l-108 -163h-459z" />
<glyph unicode="&#x2011;" horiz-adv-x="651" d="M41 410l111 163h456l-108 -163h-459z" />
<glyph unicode="&#x2012;" horiz-adv-x="651" d="M41 410l111 163h456l-108 -163h-459z" />
<glyph unicode="&#x2013;" horiz-adv-x="1028" d="M2 410l111 163h915l-110 -163h-916z" />
<glyph unicode="&#x2014;" horiz-adv-x="2054" d="M2 410l111 163h1941l-110 -163h-1942z" />
<glyph unicode="&#x2018;" horiz-adv-x="342" d="M41 895l90 471h168l-88 -471h-170z" />
<glyph unicode="&#x2019;" horiz-adv-x="342" d="M41 895l90 471h168l-88 -471h-170z" />
<glyph unicode="&#x201a;" horiz-adv-x="272" d="M-27 -178l90 473h168l-90 -473h-168z" />
<glyph unicode="&#x201c;" horiz-adv-x="653" d="M41 895l90 471h168l-88 -471h-170zM336 895l90 471h168l-88 -471h-170z" />
<glyph unicode="&#x201d;" horiz-adv-x="653" d="M41 895l90 471h168l-88 -471h-170zM336 895l90 471h168l-88 -471h-170z" />
<glyph unicode="&#x201e;" horiz-adv-x="585" d="M-27 -178l90 473h168l-90 -473h-168zM276 -178l91 473h168l-91 -473h-168z" />
<glyph unicode="&#x2022;" horiz-adv-x="522" d="M121 694q0 58 41 99t98 41q59 0 100.5 -41t40.5 -99q0 -57 -41.5 -98t-99.5 -41q-57 0 -98 41t-41 98z" />
<glyph unicode="&#x2026;" horiz-adv-x="972" d="M41 0v295h164v-295h-164zM401 0v295h162v-295h-162zM766 0v295h162v-295h-162z" />
<glyph unicode="&#x202f;" horiz-adv-x="358" />
<glyph unicode="&#x2039;" horiz-adv-x="454" d="M41 420h176l193 -420h-179zM41 465l192 422h181l-197 -422h-176z" />
<glyph unicode="&#x203a;" horiz-adv-x="454" d="M41 0l197 422h174l-191 -422h-180zM43 887h180l191 -418h-176z" />
<glyph unicode="&#x205f;" horiz-adv-x="448" />
<glyph unicode="&#x2122;" horiz-adv-x="1732" d="M25 1286v78h651v-78h-277v-739h-94v739h-280zM770 545v819h133l275 -651l284 651h131v-817h-84v717l-301 -719h-57l-293 717v-717h-88z" />
<glyph unicode="&#x25fc;" horiz-adv-x="952" d="M0 0v952h952v-952h-952z" />
</font>
</defs>
</svg>
